<?xml version="1.0" encoding="utf-8"?>
<!-- Generator: Adobe Illustrator 22.1.0, SVG Export Plug-In . SVG Version: 6.00 Build 0)  -->
<svg version="1.1" xmlns="http://www.w3.org/2000/svg" xmlns:xlink="http://www.w3.org/1999/xlink" x="0px" y="0px"
	 viewBox="0 0 1080 400" style="enable-background:new 0 0 1080 400;" xml:space="preserve">
<style type="text/css">
	.st0{fill:#D3F0FF;}
	.st1{clip-path:url(#SVGID_2_);}
	.st2{fill:none;stroke:#B1EAF1;stroke-width:1.8584;stroke-miterlimit:10;}
	.st3{fill:none;stroke:#4DCFE0;stroke-width:1.8584;stroke-miterlimit:10;}
	.st4{opacity:0.5;clip-path:url(#SVGID_4_);}
	.st5{fill:none;stroke:#FFFFFF;stroke-width:1.8646;stroke-miterlimit:10;}
	.st6{opacity:0.5;clip-path:url(#SVGID_6_);}
	.st7{opacity:0.5;clip-path:url(#SVGID_8_);}
	.st8{fill:none;stroke:#FFFFFF;stroke-width:1.4602;stroke-miterlimit:10;}
	.st9{clip-path:url(#SVGID_10_);}
	.st10{opacity:0.5;}
	.st11{clip-path:url(#SVGID_12_);}
	.st12{fill:none;stroke:#FFFFFF;stroke-width:6.1363;stroke-linecap:round;stroke-linejoin:round;stroke-miterlimit:10;}
	.st13{clip-path:url(#SVGID_14_);}
	.st14{clip-path:url(#SVGID_16_);}
	.st15{fill:none;}
	.st16{clip-path:url(#SVGID_18_);}
	.st17{clip-path:url(#SVGID_20_);}
	.st18{clip-path:url(#SVGID_22_);}
	.st19{clip-path:url(#SVGID_24_);fill:none;}
	.st20{clip-path:url(#SVGID_26_);}
	.st21{clip-path:url(#SVGID_28_);}
	.st22{clip-path:url(#SVGID_30_);}
	.st23{clip-path:url(#SVGID_32_);}
	.st24{clip-path:url(#SVGID_34_);}
	.st25{clip-path:url(#SVGID_36_);}
	.st26{clip-path:url(#SVGID_38_);fill:none;}
</style>
<g id="圖層_2">
	<g id="圖層_2_1_">
		<rect class="st0" width="1080" height="400"/>
	</g>
</g>
<g id="圖層_1">
	<g>
		<g>
			<g>
				<defs>
					<rect id="SVGID_1_" width="1080" height="401"/>
				</defs>
				<clipPath id="SVGID_2_">
					<use xlink:href="#SVGID_1_"  style="overflow:visible;"/>
				</clipPath>
				<g class="st1">
					<g>
						<path class="st2" d="M938.7,187.5L1132.8,3.2c7.6-7.2,19.7-6.9,26.9,0.7l0,0c7.2,7.6,6.9,19.7-0.7,26.9L964.9,215.1
							c-7.6,7.2-19.7,6.9-26.9-0.7l0,0C930.8,206.8,931.1,194.7,938.7,187.5z"/>
						<path class="st3" d="M936.7,264.6l194.1-184.3c7.6-7.2,19.7-6.9,26.9,0.7l0,0c7.2,7.6,6.9,19.7-0.7,26.9L962.9,292.2
							c-7.6,7.2-19.7,6.9-26.9-0.7l0,0C928.8,283.9,929.1,271.8,936.7,264.6z"/>
						<path class="st3" d="M854,190.6L1048.1,6.3c7.6-7.2,19.7-6.9,26.9,0.7l0,0c7.2,7.6,6.9,19.7-0.7,26.9l-194,184.3
							c-7.6,7.2-19.7,6.9-26.9-0.7l0,0C846.1,209.9,846.4,197.8,854,190.6z"/>
						<line class="st3" x1="1111.1" y1="11.7" x2="954.5" y2="160.4"/>
						<line class="st2" x1="1011.5" y1="27.9" x2="854.9" y2="176.6"/>
						<line class="st2" x1="1147" y1="130.4" x2="1027.1" y2="244.2"/>
					</g>
				</g>
			</g>
		</g>
	</g>
	<g>
		<g>
			<g>
				<defs>
					<rect id="SVGID_3_" width="1080" height="401"/>
				</defs>
				<clipPath id="SVGID_4_">
					<use xlink:href="#SVGID_3_"  style="overflow:visible;"/>
				</clipPath>
				<g class="st4">
					<path class="st5" d="M639.9,45.1c1.8,1.1,2.4,3.3,1.3,5.1c-1.1,1.8-3.3,2.4-5.1,1.3c-1.8-1.1-2.4-3.3-1.3-5.1
						C635.9,44.6,638.2,44,639.9,45.1z"/>
					<path class="st5" d="M652.9,23.2c1.8,1.1,2.4,3.3,1.3,5.1c-1.1,1.8-3.3,2.4-5.1,1.3s-2.4-3.3-1.3-5.1
						C648.8,22.8,651.1,22.2,652.9,23.2z"/>
					<path class="st5" d="M665.8,1.4c1.8,1.1,2.4,3.3,1.3,5.1c-1.1,1.8-3.3,2.4-5.1,1.3s-2.4-3.3-1.3-5.1
						C661.7,0.9,664,0.3,665.8,1.4z"/>
					<path class="st5" d="M678.8-20.5c1.8,1.1,2.4,3.3,1.3,5.1c-1.1,1.8-3.3,2.4-5.1,1.3s-2.4-3.3-1.3-5.1
						C674.7-21,677-21.5,678.8-20.5z"/>
					<circle class="st5" cx="689.8" cy="-39.1" r="3.7"/>
					<circle class="st5" cx="702.7" cy="-61" r="3.7"/>
					<circle class="st5" cx="715.7" cy="-82.9" r="3.7"/>
					<path class="st5" d="M661.8,58c1.8,1.1,2.4,3.3,1.3,5.1c-1.1,1.8-3.3,2.4-5.1,1.3s-2.4-3.3-1.3-5.1C657.7,57.6,660,57,661.8,58
						z"/>
					<path class="st5" d="M674.7,36.2c1.8,1.1,2.4,3.3,1.3,5.1c-1.1,1.8-3.3,2.4-5.1,1.3c-1.8-1.1-2.4-3.3-1.3-5.1
						C670.7,35.7,673,35.1,674.7,36.2z"/>
					
						<ellipse transform="matrix(0.9687 -0.2484 0.2484 0.9687 17.1469 170.9012)" class="st5" cx="685.8" cy="17.5" rx="3.7" ry="3.7"/>
					<path class="st5" d="M700.6-7.6c1.8,1.1,2.4,3.3,1.3,5.1c-1.1,1.8-3.3,2.4-5.1,1.3s-2.4-3.3-1.3-5.1
						C696.5-8,698.8-8.6,700.6-7.6z"/>
					<circle class="st5" cx="711.7" cy="-26.2" r="3.7"/>
					<circle class="st5" cx="724.6" cy="-48.1" r="3.7"/>
					<circle class="st5" cx="737.5" cy="-69.9" r="3.7"/>
					<path class="st5" d="M683.7,71c1.8,1.1,2.4,3.3,1.3,5.1c-1.1,1.8-3.3,2.4-5.1,1.3s-2.4-3.3-1.3-5.1
						C679.6,70.5,681.9,69.9,683.7,71z"/>
					<path class="st5" d="M696.6,49.1c1.8,1.1,2.4,3.3,1.3,5.1c-1.1,1.8-3.3,2.4-5.1,1.3c-1.8-1.1-2.4-3.3-1.3-5.1
						C692.5,48.6,694.8,48.1,696.6,49.1z"/>
					
						<ellipse transform="matrix(0.9687 -0.2484 0.2484 0.9687 14.601 176.7234)" class="st5" cx="707.6" cy="30.5" rx="3.7" ry="3.7"/>
					
						<ellipse transform="matrix(0.9687 -0.2484 0.2484 0.9687 20.4483 179.2665)" class="st5" cx="720.6" cy="8.6" rx="3.7" ry="3.7"/>
					<path class="st5" d="M735.4-16.5c1.8,1.1,2.4,3.3,1.3,5.1s-3.3,2.4-5.1,1.3s-2.4-3.3-1.3-5.1C731.3-16.9,733.6-17.5,735.4-16.5
						z"/>
					<circle class="st5" cx="746.5" cy="-35.1" r="3.7"/>
					<path class="st5" d="M761.3-60.2c1.8,1.1,2.4,3.3,1.3,5.1c-1.1,1.8-3.3,2.4-5.1,1.3c-1.8-1.1-2.4-3.3-1.3-5.1
						C757.2-60.7,759.5-61.3,761.3-60.2z"/>
					<circle class="st5" cx="703.6" cy="87.1" r="3.7"/>
					<path class="st5" d="M718.5,62c1.8,1.1,2.4,3.3,1.3,5.1c-1.1,1.8-3.3,2.4-5.1,1.3s-2.4-3.3-1.3-5.1
						C714.4,61.6,716.7,61,718.5,62z"/>
					
						<ellipse transform="matrix(0.9687 -0.2484 0.2484 0.9687 12.083 182.5679)" class="st5" cx="729.5" cy="43.4" rx="3.7" ry="3.7"/>
					<path class="st5" d="M744.3,18.3c1.8,1.1,2.4,3.3,1.3,5.1c-1.1,1.8-3.3,2.4-5.1,1.3s-2.4-3.3-1.3-5.1
						C740.3,17.9,742.6,17.3,744.3,18.3z"/>
					
						<ellipse transform="matrix(0.9687 -0.2484 0.2484 0.9687 23.7496 187.6318)" class="st5" cx="755.4" cy="-0.3" rx="3.7" ry="3.7"/>
					<path class="st5" d="M770.2-25.4c1.8,1.1,2.4,3.3,1.3,5.1c-1.1,1.8-3.3,2.4-5.1,1.3s-2.4-3.3-1.3-5.1
						C766.1-25.9,768.4-26.5,770.2-25.4z"/>
					
						<ellipse transform="matrix(0.9687 -0.2484 0.2484 0.9687 35.4163 192.6957)" class="st5" cx="781.3" cy="-44" rx="3.7" ry="3.7"/>
					<circle class="st5" cx="725.5" cy="100.1" r="3.7"/>
					<circle class="st5" cx="738.4" cy="78.2" r="3.7"/>
					<path class="st5" d="M753.3,53.1c1.8,1.1,2.4,3.3,1.3,5.1c-1.1,1.8-3.3,2.4-5.1,1.3c-1.8-1.1-2.4-3.3-1.3-5.1
						C749.2,52.7,751.5,52.1,753.3,53.1z"/>
					<path class="st5" d="M766.2,31.3c1.8,1.1,2.4,3.3,1.3,5.1c-1.1,1.8-3.3,2.4-5.1,1.3c-1.8-1.1-2.4-3.3-1.3-5.1
						C762.1,30.8,764.4,30.2,766.2,31.3z"/>
					<path class="st5" d="M779.1,9.4c1.8,1.1,2.4,3.3,1.3,5.1c-1.1,1.8-3.3,2.4-5.1,1.3s-2.4-3.3-1.3-5.1
						C775.1,8.9,777.4,8.3,779.1,9.4z"/>
					<circle class="st5" cx="790.2" cy="-9.2" r="3.7"/>
					<path class="st5" d="M805-34.3c1.8,1.1,2.4,3.3,1.3,5.1c-1.1,1.8-3.3,2.4-5.1,1.3s-2.4-3.3-1.3-5.1
						C801-34.8,803.2-35.4,805-34.3z"/>
					<circle class="st5" cx="725.5" cy="100.1" r="3.7"/>
					<circle class="st5" cx="738.4" cy="78.2" r="3.7"/>
					<path class="st5" d="M753.3,53.1c1.8,1.1,2.4,3.3,1.3,5.1c-1.1,1.8-3.3,2.4-5.1,1.3c-1.8-1.1-2.4-3.3-1.3-5.1
						C749.2,52.7,751.5,52.1,753.3,53.1z"/>
					<path class="st5" d="M766.2,31.3c1.8,1.1,2.4,3.3,1.3,5.1c-1.1,1.8-3.3,2.4-5.1,1.3c-1.8-1.1-2.4-3.3-1.3-5.1
						C762.1,30.8,764.4,30.2,766.2,31.3z"/>
					<path class="st5" d="M779.1,9.4c1.8,1.1,2.4,3.3,1.3,5.1c-1.1,1.8-3.3,2.4-5.1,1.3s-2.4-3.3-1.3-5.1
						C775.1,8.9,777.4,8.3,779.1,9.4z"/>
					<circle class="st5" cx="790.2" cy="-9.2" r="3.7"/>
					<path class="st5" d="M805-34.3c1.8,1.1,2.4,3.3,1.3,5.1c-1.1,1.8-3.3,2.4-5.1,1.3s-2.4-3.3-1.3-5.1
						C801-34.8,803.2-35.4,805-34.3z"/>
					<circle class="st5" cx="747.4" cy="113" r="3.7"/>
					<circle class="st5" cx="760.3" cy="91.1" r="3.7"/>
					<path class="st5" d="M775.1,66.1c1.8,1.1,2.4,3.3,1.3,5.1c-1.1,1.8-3.3,2.4-5.1,1.3s-2.4-3.3-1.3-5.1
						C771.1,65.6,773.4,65,775.1,66.1z"/>
					<path class="st5" d="M788.1,44.2c1.8,1.1,2.4,3.3,1.3,5.1c-1.1,1.8-3.3,2.4-5.1,1.3c-1.8-1.1-2.4-3.3-1.3-5.1
						C784,43.7,786.3,43.1,788.1,44.2z"/>
					
						<ellipse transform="matrix(0.9687 -0.2484 0.2484 0.9687 18.6858 199.2984)" class="st5" cx="799.1" cy="25.6" rx="3.7" ry="3.7"/>
					<circle class="st5" cx="812" cy="3.7" r="3.7"/>
					
						<ellipse transform="matrix(0.9687 -0.2484 0.2484 0.9687 30.3775 204.3595)" class="st5" cx="825" cy="-18.2" rx="3.7" ry="3.7"/>
					<circle class="st5" cx="769.2" cy="125.9" r="3.7"/>
					<circle class="st5" cx="782.2" cy="104.1" r="3.7"/>
					<path class="st5" d="M797,79c1.8,1.1,2.4,3.3,1.3,5.1c-1.1,1.8-3.3,2.4-5.1,1.3s-2.4-3.3-1.3-5.1C792.9,78.5,795.2,77.9,797,79
						z"/>
					<circle class="st5" cx="808" cy="60.4" r="3.7"/>
					<circle class="st5" cx="821" cy="38.5" r="3.7"/>
					<circle class="st5" cx="833.9" cy="16.6" r="3.7"/>
					<circle class="st5" cx="846.8" cy="-5.2" r="3.7"/>
				</g>
			</g>
		</g>
	</g>
	<g>
		<g>
			<g>
				<defs>
					<rect id="SVGID_5_" width="1080" height="401"/>
				</defs>
				<clipPath id="SVGID_6_">
					<use xlink:href="#SVGID_5_"  style="overflow:visible;"/>
				</clipPath>
				<g class="st6">
					<path class="st5" d="M955.9,345.8c1.5,1.4,1.5,3.8,0.1,5.3s-3.8,1.5-5.3,0.1s-1.5-3.8-0.1-5.3
						C952,344.4,954.4,344.4,955.9,345.8z"/>
					<path class="st5" d="M973.6,327.6c1.5,1.4,1.5,3.8,0.1,5.3s-3.8,1.5-5.3,0.1s-1.5-3.8-0.1-5.3S972.1,326.1,973.6,327.6z"/>
					<path class="st5" d="M991.2,309.3c1.5,1.4,1.5,3.8,0.1,5.3s-3.8,1.5-5.3,0.1s-1.5-3.8-0.1-5.3
						C987.4,307.9,989.7,307.9,991.2,309.3z"/>
					<path class="st5" d="M1008.9,291c1.5,1.4,1.5,3.8,0.1,5.3s-3.8,1.5-5.3,0.1s-1.5-3.8-0.1-5.3
						C1005,289.7,1007.4,289.6,1008.9,291z"/>
					<path class="st5" d="M1023.9,271.8c2,0,3.7,1.7,3.7,3.7s-1.7,3.7-3.7,3.7s-3.7-1.7-3.7-3.7S1021.9,271.8,1023.9,271.8z"/>
					<circle class="st5" cx="1041.6" cy="257.2" r="3.7"/>
					<circle class="st5" cx="1059.3" cy="239" r="3.7"/>
					<path class="st5" d="M974.1,363.5c1.5,1.4,1.5,3.8,0.1,5.3s-3.8,1.5-5.3,0.1s-1.5-3.8-0.1-5.3
						C970.3,362.1,972.7,362.1,974.1,363.5z"/>
					<path class="st5" d="M991.8,345.2c1.5,1.4,1.5,3.8,0.1,5.3s-3.8,1.5-5.3,0.1s-1.5-3.8-0.1-5.3
						C988,343.8,990.3,343.8,991.8,345.2z"/>
					<ellipse class="st5" cx="1006.9" cy="329.7" rx="3.7" ry="3.7"/>
					<path class="st5" d="M1027.1,308.7c1.5,1.4,1.5,3.8,0.1,5.3s-3.8,1.5-5.3,0.1s-1.5-3.8-0.1-5.3
						C1023.3,307.3,1025.7,307.3,1027.1,308.7z"/>
					<circle class="st5" cx="1042.2" cy="293.1" r="3.7"/>
					<circle class="st5" cx="1059.9" cy="274.9" r="3.7"/>
					<circle class="st5" cx="1077.5" cy="256.6" r="3.7"/>
					<path class="st5" d="M992.4,381.2c1.5,1.4,1.5,3.8,0.1,5.3s-3.8,1.5-5.3,0.1s-1.5-3.8-0.1-5.3
						C988.5,379.8,990.9,379.7,992.4,381.2z"/>
					<path class="st5" d="M1010.1,362.9c1.5,1.4,1.5,3.8,0.1,5.3s-3.8,1.5-5.3,0.1s-1.5-3.8-0.1-5.3S1008.6,361.5,1010.1,362.9z"/>
					<path class="st5" d="M1025.1,343.6c2,0,3.7,1.6,3.8,3.6c0,2-1.6,3.7-3.6,3.8c-2,0-3.7-1.6-3.8-3.6
						C1021.4,345.3,1023,343.6,1025.1,343.6z"/>
					
						<ellipse transform="matrix(0.9999 -1.649941e-02 1.649941e-02 0.9999 -5.2882 17.251)" class="st5" cx="1042.8" cy="329.1" rx="3.7" ry="3.7"/>
					<path class="st5" d="M1063.1,308.1c1.5,1.4,1.5,3.8,0.1,5.3s-3.8,1.5-5.3,0.1s-1.5-3.8-0.1-5.3S1061.6,306.7,1063.1,308.1z"/>
					<circle class="st5" cx="1078.1" cy="292.6" r="3.7"/>
					<path class="st5" d="M1098.4,271.6c1.5,1.4,1.5,3.8,0.1,5.3s-3.8,1.5-5.3,0.1s-1.5-3.8-0.1-5.3S1096.9,270.2,1098.4,271.6z"/>
					<circle class="st5" cx="1008.1" cy="401.5" r="3.7"/>
					<path class="st5" d="M1028.3,380.6c1.5,1.4,1.5,3.8,0.1,5.3s-3.8,1.5-5.3,0.1c-1.5-1.4-1.5-3.8-0.1-5.3
						C1024.5,379.2,1026.8,379.1,1028.3,380.6z"/>
					
						<ellipse transform="matrix(0.9999 -1.649941e-02 1.649941e-02 0.9999 -5.8805 17.2658)" class="st5" cx="1043.4" cy="365" rx="3.7" ry="3.7"/>
					<path class="st5" d="M1063.7,344c1.5,1.4,1.5,3.8,0.1,5.3s-3.8,1.5-5.3,0.1s-1.5-3.8-0.1-5.3
						C1059.8,342.6,1062.2,342.6,1063.7,344z"/>
					
						<ellipse transform="matrix(0.9999 -1.649940e-02 1.649940e-02 0.9999 -5.2734 17.8433)" class="st5" cx="1078.7" cy="328.5" rx="3.7" ry="3.7"/>
					<path class="st5" d="M1099,307.5c1.5,1.4,1.5,3.8,0.1,5.3s-3.8,1.5-5.3,0.1s-1.5-3.8-0.1-5.3S1097.5,306.1,1099,307.5z"/>
					
						<ellipse transform="matrix(0.9999 -1.649940e-02 1.649940e-02 0.9999 -4.6664 18.4207)" class="st5" cx="1114" cy="292" rx="3.7" ry="3.7"/>
					<path class="st5" d="M1026.3,415.5c2,0,3.7,1.7,3.7,3.7s-1.7,3.7-3.7,3.7s-3.7-1.7-3.7-3.7S1024.3,415.5,1026.3,415.5z"/>
					<circle class="st5" cx="1044" cy="400.9" r="3.7"/>
					<path class="st5" d="M1064.2,380c1.5,1.4,1.5,3.8,0.1,5.3s-3.8,1.5-5.3,0.1s-1.5-3.8-0.1-5.3
						C1060.4,378.6,1062.8,378.5,1064.2,380z"/>
					<path class="st5" d="M1081.9,361.7c1.5,1.4,1.5,3.8,0.1,5.3s-3.8,1.5-5.3,0.1s-1.5-3.8-0.1-5.3
						C1078.1,360.3,1080.4,360.3,1081.9,361.7z"/>
					<path class="st5" d="M1099.6,343.5c1.5,1.4,1.5,3.8,0.1,5.3s-3.8,1.5-5.3,0.1s-1.5-3.8-0.1-5.3S1098.1,342,1099.6,343.5z"/>
					<circle class="st5" cx="1114.6" cy="327.9" r="3.7"/>
					<path class="st5" d="M1134.9,306.9c1.5,1.4,1.5,3.8,0.1,5.3s-3.8,1.5-5.3,0.1s-1.5-3.8-0.1-5.3
						C1131.1,305.5,1133.4,305.5,1134.9,306.9z"/>
					<path class="st5" d="M1026.3,415.5c2,0,3.7,1.7,3.7,3.7s-1.7,3.7-3.7,3.7s-3.7-1.7-3.7-3.7S1024.3,415.5,1026.3,415.5z"/>
					<circle class="st5" cx="1044" cy="400.9" r="3.7"/>
					<path class="st5" d="M1064.2,380c1.5,1.4,1.5,3.8,0.1,5.3s-3.8,1.5-5.3,0.1s-1.5-3.8-0.1-5.3
						C1060.4,378.6,1062.8,378.5,1064.2,380z"/>
					<path class="st5" d="M1081.9,361.7c1.5,1.4,1.5,3.8,0.1,5.3s-3.8,1.5-5.3,0.1s-1.5-3.8-0.1-5.3
						C1078.1,360.3,1080.4,360.3,1081.9,361.7z"/>
					<path class="st5" d="M1099.6,343.5c1.5,1.4,1.5,3.8,0.1,5.3s-3.8,1.5-5.3,0.1s-1.5-3.8-0.1-5.3S1098.1,342,1099.6,343.5z"/>
					<circle class="st5" cx="1114.6" cy="327.9" r="3.7"/>
					<path class="st5" d="M1134.9,306.9c1.5,1.4,1.5,3.8,0.1,5.3s-3.8,1.5-5.3,0.1s-1.5-3.8-0.1-5.3
						C1131.1,305.5,1133.4,305.5,1134.9,306.9z"/>
					<circle class="st5" cx="1044.6" cy="436.8" r="3.7"/>
					<circle class="st5" cx="1062.2" cy="418.6" r="3.7"/>
					<path class="st5" d="M1082.5,397.6c1.5,1.4,1.5,3.8,0.1,5.3s-3.8,1.5-5.3,0.1s-1.5-3.8-0.1-5.3
						C1078.7,396.2,1081,396.2,1082.5,397.6z"/>
					<path class="st5" d="M1100.2,379.4c1.5,1.4,1.5,3.8,0.1,5.3s-3.8,1.5-5.3,0.1s-1.5-3.8-0.1-5.3
						C1096.3,378,1098.7,377.9,1100.2,379.4z"/>
					
						<ellipse transform="matrix(0.9999 -1.649941e-02 1.649941e-02 0.9999 -5.8509 18.4503)" class="st5" cx="1115.2" cy="363.8" rx="3.7" ry="3.7"/>
					<circle class="st5" cx="1132.9" cy="345.5" r="3.7"/>
					
						<ellipse transform="matrix(0.9999 -1.649940e-02 1.649940e-02 0.9999 -5.2438 19.0294)" class="st5" cx="1150.6" cy="327.3" rx="3.7" ry="3.7"/>
					<circle class="st5" cx="1062.8" cy="454.5" r="3.7"/>
					<circle class="st5" cx="1080.5" cy="436.2" r="3.7"/>
					<path class="st5" d="M1100.8,415.3c1.5,1.4,1.5,3.8,0.1,5.3s-3.8,1.5-5.3,0.1s-1.5-3.8-0.1-5.3S1099.3,413.9,1100.8,415.3z"/>
					<circle class="st5" cx="1115.8" cy="399.7" r="3.7"/>
					<circle class="st5" cx="1133.5" cy="381.5" r="3.7"/>
					<circle class="st5" cx="1151.2" cy="363.2" r="3.7"/>
					<circle class="st5" cx="1168.8" cy="345" r="3.7"/>
				</g>
			</g>
		</g>
	</g>
	<g>
		<g>
			<g>
				<defs>
					<rect id="SVGID_7_" width="1080" height="401"/>
				</defs>
				<clipPath id="SVGID_8_">
					<use xlink:href="#SVGID_7_"  style="overflow:visible;"/>
				</clipPath>
				<g class="st7">
					<path class="st8" d="M-41,172.5c1.2,1.1,1.2,3,0.1,4.1c-1.1,1.2-3,1.2-4.1,0.1c-1.2-1.1-1.2-3-0.1-4.1
						C-44,171.4-42.1,171.4-41,172.5z"/>
					<path class="st8" d="M-27.1,158.2c1.2,1.1,1.2,3,0.1,4.1c-1.1,1.2-3,1.2-4.1,0.1c-1.2-1.1-1.2-3-0.1-4.1
						C-30.1,157.1-28.3,157.1-27.1,158.2z"/>
					<path class="st8" d="M-13.3,143.9c1.2,1.1,1.2,3,0.1,4.1c-1.1,1.2-3,1.2-4.1,0.1c-1.2-1.1-1.2-3-0.1-4.1
						C-16.3,142.8-14.5,142.8-13.3,143.9z"/>
					<path class="st8" d="M0.5,129.6c1.2,1.1,1.2,3,0.1,4.1c-1.1,1.2-3,1.2-4.1,0.1s-1.2-3-0.1-4.1C-2.5,128.5-0.6,128.5,0.5,129.6z
						"/>
					<circle class="st8" cx="12.3" cy="117.4" r="2.9"/>
					<circle class="st8" cx="26.2" cy="103.1" r="2.9"/>
					<circle class="st8" cx="40" cy="88.8" r="2.9"/>
					<path class="st8" d="M-26.7,186.3c1.2,1.1,1.2,3,0.1,4.1c-1.1,1.2-3,1.2-4.1,0.1c-1.2-1.1-1.2-3-0.1-4.1
						C-29.7,185.2-27.8,185.2-26.7,186.3z"/>
					<path class="st8" d="M-12.8,172c1.2,1.1,1.2,3,0.1,4.1c-1.1,1.2-3,1.2-4.1,0.1c-1.2-1.1-1.2-3-0.1-4.1
						C-15.8,170.9-14,170.9-12.8,172z"/>
					<ellipse class="st8" cx="-1" cy="159.8" rx="2.9" ry="2.9"/>
					<path class="st8" d="M14.8,143.4c1.2,1.1,1.2,3,0.1,4.1c-1.1,1.2-3,1.2-4.1,0.1s-1.2-3-0.1-4.1
						C11.8,142.3,13.7,142.3,14.8,143.4z"/>
					<circle class="st8" cx="26.6" cy="131.2" r="2.9"/>
					<circle class="st8" cx="40.5" cy="116.9" r="2.9"/>
					<circle class="st8" cx="54.3" cy="102.6" r="2.9"/>
					<path class="st8" d="M-12.4,200.2c1.2,1.1,1.2,3,0.1,4.1c-1.1,1.2-3,1.2-4.1,0.1c-1.2-1.1-1.2-3-0.1-4.1
						C-15.4,199.1-13.5,199-12.4,200.2z"/>
					<path class="st8" d="M1.5,185.9c1.2,1.1,1.2,3,0.1,4.1c-1.1,1.2-3,1.2-4.1,0.1c-1.2-1.1-1.2-3-0.1-4.1
						C-1.5,184.8,0.3,184.7,1.5,185.9z"/>
					<ellipse class="st8" cx="13.3" cy="173.7" rx="2.9" ry="2.9"/>
					<ellipse class="st8" cx="27.1" cy="159.4" rx="2.9" ry="2.9"/>
					<path class="st8" d="M43,143c1.2,1.1,1.2,3,0.1,4.1c-1.1,1.2-3,1.2-4.1,0.1c-1.2-1.1-1.2-3-0.1-4.1C40,141.9,41.8,141.8,43,143
						z"/>
					<circle class="st8" cx="54.8" cy="130.8" r="2.9"/>
					<path class="st8" d="M70.6,114.4c1.2,1.1,1.2,3,0.1,4.1c-1.1,1.2-3,1.2-4.1,0.1c-1.2-1.1-1.2-3-0.1-4.1
						C67.6,113.3,69.5,113.2,70.6,114.4z"/>
					<circle class="st8" cx="-0.1" cy="216.1" r="2.9"/>
					<path class="st8" d="M15.8,199.7c1.2,1.1,1.2,3,0.1,4.1c-1.1,1.2-3,1.2-4.1,0.1c-1.2-1.1-1.2-3-0.1-4.1
						C12.8,198.6,14.6,198.6,15.8,199.7z"/>
					<ellipse class="st8" cx="27.6" cy="187.5" rx="2.9" ry="2.9"/>
					<path class="st8" d="M43.4,171.1c1.2,1.1,1.2,3,0.1,4.1c-1.1,1.2-3,1.2-4.1,0.1c-1.2-1.1-1.2-3-0.1-4.1
						C40.4,170,42.3,170,43.4,171.1z"/>
					
						<ellipse transform="matrix(0.9999 -1.649933e-02 1.649933e-02 0.9999 -2.6143 0.9324)" class="st8" cx="55.2" cy="158.9" rx="2.9" ry="2.9"/>
					<path class="st8" d="M71.1,142.5c1.2,1.1,1.2,3,0.1,4.1c-1.1,1.2-3,1.2-4.1,0.1c-1.2-1.1-1.2-3-0.1-4.1
						C68.1,141.4,69.9,141.4,71.1,142.5z"/>
					<ellipse class="st8" cx="82.9" cy="130.3" rx="2.9" ry="2.9"/>
					<circle class="st8" cx="14.2" cy="229.9" r="2.9"/>
					<circle class="st8" cx="28" cy="215.6" r="2.9"/>
					<path class="st8" d="M43.9,199.2c1.2,1.1,1.2,3,0.1,4.1c-1.1,1.2-3,1.2-4.1,0.1c-1.2-1.1-1.2-3-0.1-4.1
						C40.9,198.1,42.7,198.1,43.9,199.2z"/>
					<path class="st8" d="M57.7,184.9c1.2,1.1,1.2,3,0.1,4.1c-1.1,1.2-3,1.2-4.1,0.1c-1.2-1.1-1.2-3-0.1-4.1
						C54.7,183.8,56.6,183.8,57.7,184.9z"/>
					<path class="st8" d="M71.6,170.6c1.2,1.1,1.2,3,0.1,4.1c-1.1,1.2-3,1.2-4.1,0.1c-1.2-1.1-1.2-3-0.1-4.1
						C68.6,169.5,70.4,169.5,71.6,170.6z"/>
					<circle class="st8" cx="83.4" cy="158.4" r="2.9"/>
					<path class="st8" d="M99.2,142c1.2,1.1,1.2,3,0.1,4.1c-1.1,1.2-3,1.2-4.1,0.1c-1.2-1.1-1.2-3-0.1-4.1
						C96.2,140.9,98.1,140.9,99.2,142z"/>
					<circle class="st8" cx="14.2" cy="229.9" r="2.9"/>
					<circle class="st8" cx="28" cy="215.6" r="2.9"/>
					<path class="st8" d="M43.9,199.2c1.2,1.1,1.2,3,0.1,4.1c-1.1,1.2-3,1.2-4.1,0.1c-1.2-1.1-1.2-3-0.1-4.1
						C40.9,198.1,42.7,198.1,43.9,199.2z"/>
					<path class="st8" d="M57.7,184.9c1.2,1.1,1.2,3,0.1,4.1c-1.1,1.2-3,1.2-4.1,0.1c-1.2-1.1-1.2-3-0.1-4.1
						C54.7,183.8,56.6,183.8,57.7,184.9z"/>
					<path class="st8" d="M71.6,170.6c1.2,1.1,1.2,3,0.1,4.1c-1.1,1.2-3,1.2-4.1,0.1c-1.2-1.1-1.2-3-0.1-4.1
						C68.6,169.5,70.4,169.5,71.6,170.6z"/>
					<circle class="st8" cx="83.4" cy="158.4" r="2.9"/>
					<path class="st8" d="M99.2,142c1.2,1.1,1.2,3,0.1,4.1c-1.1,1.2-3,1.2-4.1,0.1c-1.2-1.1-1.2-3-0.1-4.1
						C96.2,140.9,98.1,140.9,99.2,142z"/>
					<circle class="st8" cx="28.5" cy="243.8" r="2.9"/>
					<circle class="st8" cx="42.3" cy="229.5" r="2.9"/>
					<path class="st8" d="M58.2,213.1c1.2,1.1,1.2,3,0.1,4.1c-1.1,1.2-3,1.2-4.1,0.1c-1.2-1.1-1.2-3-0.1-4.1
						C55.2,212,57,211.9,58.2,213.1z"/>
					<path class="st8" d="M72,198.8c1.2,1.1,1.2,3,0.1,4.1c-1.1,1.2-3,1.2-4.1,0.1c-1.2-1.1-1.2-3-0.1-4.1
						C69,197.7,70.9,197.6,72,198.8z"/>
					
						<ellipse transform="matrix(0.9999 -1.649936e-02 1.649936e-02 0.9999 -3.0675 1.4081)" class="st8" cx="83.8" cy="186.6" rx="2.9" ry="2.9"/>
					<circle class="st8" cx="97.7" cy="172.3" r="2.9"/>
					
						<ellipse transform="matrix(0.9999 -1.649940e-02 1.649940e-02 0.9999 -2.5918 1.8613)" class="st8" cx="111.5" cy="158" rx="2.9" ry="2.9"/>
					<circle class="st8" cx="42.8" cy="257.6" r="2.9"/>
					<circle class="st8" cx="56.6" cy="243.3" r="2.9"/>
					<path class="st8" d="M72.5,226.9c1.2,1.1,1.2,3,0.1,4.1c-1.1,1.2-3,1.2-4.1,0.1c-1.2-1.1-1.2-3-0.1-4.1
						C69.5,225.8,71.3,225.8,72.5,226.9z"/>
					<circle class="st8" cx="84.3" cy="214.7" r="2.9"/>
					<circle class="st8" cx="98.1" cy="200.4" r="2.9"/>
					<circle class="st8" cx="112" cy="186.1" r="2.9"/>
					<circle class="st8" cx="125.8" cy="171.8" r="2.9"/>
				</g>
			</g>
		</g>
	</g>
	<g>
		<g>
			<defs>
				<rect id="SVGID_9_" width="1080" height="401"/>
			</defs>
			<clipPath id="SVGID_10_">
				<use xlink:href="#SVGID_9_"  style="overflow:visible;"/>
			</clipPath>
			<g class="st9">
				<g>
					<g>
						<g class="st10">
							<g>
								<defs>
									<circle id="SVGID_11_" cx="138.6" cy="411.1" r="145.9"/>
								</defs>
								<clipPath id="SVGID_12_">
									<use xlink:href="#SVGID_11_"  style="overflow:visible;"/>
								</clipPath>
								<g class="st11">
									<line class="st12" x1="-335.9" y1="714.3" x2="-2.4" y2="224.8"/>
									<line class="st12" x1="-307.9" y1="709" x2="25.5" y2="219.5"/>
									<line class="st12" x1="-280" y1="703.7" x2="53.5" y2="214.2"/>
									<line class="st12" x1="-252" y1="698.4" x2="81.4" y2="208.8"/>
									<line class="st12" x1="-223.9" y1="693.1" x2="109.4" y2="203.5"/>
									<line class="st12" x1="-195.9" y1="687.8" x2="137.4" y2="198.2"/>
									<line class="st12" x1="-167.9" y1="682.4" x2="165.4" y2="192.9"/>
									<line class="st12" x1="-139.9" y1="677.1" x2="193.4" y2="187.6"/>
									<line class="st12" x1="-112.1" y1="671.8" x2="221.4" y2="182.3"/>
									<line class="st12" x1="-84.1" y1="666.5" x2="249.4" y2="177"/>
									<line class="st12" x1="-56" y1="661.2" x2="277.4" y2="171.7"/>
									<line class="st12" x1="-28" y1="655.9" x2="305.4" y2="166.4"/>
									<line class="st12" x1="-0.1" y1="650.6" x2="333.4" y2="161.1"/>
									<line class="st12" x1="27.9" y1="645.3" x2="361.4" y2="155.8"/>
									<line class="st12" x1="55.8" y1="640" x2="389.3" y2="150.4"/>
									<line class="st12" x1="83.8" y1="634.7" x2="417.3" y2="145.1"/>
									<line class="st12" x1="111.8" y1="629.4" x2="445.3" y2="139.8"/>
									<line class="st12" x1="139.9" y1="624" x2="473.3" y2="134.5"/>
									<line class="st12" x1="167.9" y1="618.7" x2="501.3" y2="129.2"/>
									<line class="st12" x1="195.8" y1="613.4" x2="529.2" y2="123.9"/>
									<line class="st12" x1="223.8" y1="608.1" x2="557.2" y2="118.6"/>
									<line class="st12" x1="251.8" y1="602.8" x2="585.2" y2="113.3"/>
									<line class="st12" x1="279.8" y1="597.5" x2="613.2" y2="108"/>
								</g>
							</g>
						</g>
						<g>
							<g>
								<g>
									<defs>
										<rect id="SVGID_13_" x="7.3" y="-43" width="1080" height="424"/>
									</defs>
									<clipPath id="SVGID_14_">
										<use xlink:href="#SVGID_13_"  style="overflow:visible;"/>
									</clipPath>
									<g class="st13">
										<g>
											<g>
												<g class="st10">
													<g>
														<defs>
															<ellipse id="SVGID_15_" cx="351.3" cy="-94.2" rx="176.2" ry="186.3"/>
														</defs>
														<clipPath id="SVGID_16_">
															<use xlink:href="#SVGID_15_"  style="overflow:visible;"/>
														</clipPath>
														<g class="st14">
															<line class="st15" x1="-222.1" y1="293.1" x2="180.8" y2="-332.2"/>
															<line class="st15" x1="-194.4" y1="287.6" x2="208.4" y2="-337.8"/>
															<line class="st15" x1="-166.9" y1="282" x2="235.9" y2="-343.3"/>
															<line class="st15" x1="-139.4" y1="276.5" x2="263.5" y2="-348.8"/>
															<line class="st15" x1="-111.8" y1="271" x2="291" y2="-354.4"/>
															<line class="st15" x1="-84.3" y1="265.5" x2="318.5" y2="-359.9"/>
															<line class="st15" x1="-56.8" y1="259.9" x2="346" y2="-365.4"/>
															<line class="st15" x1="-29.2" y1="254.4" x2="373.6" y2="-370.9"/>
															<line class="st15" x1="-1.6" y1="248.9" x2="401.1" y2="-376.5"/>
															<line class="st15" x1="25.9" y1="243.3" x2="428.8" y2="-382"/>
															<line class="st15" x1="53.5" y1="237.8" x2="456.3" y2="-387.5"/>
															<line class="st15" x1="80.9" y1="232.3" x2="483.8" y2="-393"/>
															<line class="st15" x1="108.6" y1="226.8" x2="511.4" y2="-398.6"/>
															<line class="st15" x1="136.1" y1="221.2" x2="538.8" y2="-404.1"/>
															<line class="st15" x1="163.6" y1="215.7" x2="566.5" y2="-409.6"/>
															<line class="st15" x1="191.1" y1="210.2" x2="594" y2="-415.1"/>
															<line class="st15" x1="218.8" y1="204.7" x2="621.5" y2="-420.7"/>
															<line class="st15" x1="246.3" y1="199.1" x2="649" y2="-426.2"/>
															<line class="st15" x1="273.9" y1="193.6" x2="676.7" y2="-431.7"/>
															<line class="st15" x1="301.4" y1="188.1" x2="704.2" y2="-437.2"/>
															<line class="st15" x1="329" y1="182.6" x2="731.8" y2="-442.8"/>
															<line class="st15" x1="356.5" y1="177" x2="759.3" y2="-448.3"/>
															<line class="st15" x1="384" y1="171.5" x2="786.8" y2="-453.8"/>
															<line class="st15" x1="411.5" y1="166" x2="814.3" y2="-459.3"/>
															<line class="st15" x1="439" y1="160.5" x2="841.8" y2="-464.9"/>
															<line class="st15" x1="466.6" y1="154.9" x2="869.5" y2="-470.4"/>
															<line class="st15" x1="494.1" y1="149.4" x2="897" y2="-475.9"/>
															<line class="st15" x1="521.8" y1="143.9" x2="924.5" y2="-481.4"/>
														</g>
													</g>
												</g>
												<rect x="7.3" y="-43" class="st15" width="1080" height="424"/>
												<g>
													<g>
														<g>
															<g class="st10">
																<g>
																	<defs>
																		<ellipse id="SVGID_17_" cx="1430.8" cy="346.8" rx="176.2" ry="174.8"/>
																	</defs>
																	<clipPath id="SVGID_18_">
																		<use xlink:href="#SVGID_17_"  style="overflow:visible;"/>
																	</clipPath>
																	<g class="st16">
																		<line class="st15" x1="857.5" y1="710.2" x2="1260.3" y2="123.4"/>
																		<line class="st15" x1="885" y1="705" x2="1287.8" y2="118.2"/>
																		<line class="st15" x1="912.5" y1="699.8" x2="1315.3" y2="113.2"/>
																		<line class="st15" x1="940" y1="694.6" x2="1342.8" y2="107.9"/>
																		<line class="st15" x1="967.7" y1="689.3" x2="1370.4" y2="102.7"/>
																		<line class="st15" x1="995.2" y1="684.2" x2="1397.9" y2="97.5"/>
																		<line class="st15" x1="1022.7" y1="679.1" x2="1425.6" y2="92.4"/>
																		<line class="st15" x1="1050.3" y1="673.9" x2="1453.1" y2="87.2"/>
																		<line class="st15" x1="1077.8" y1="668.6" x2="1480.7" y2="82"/>
																		<line class="st15" x1="1105.3" y1="663.5" x2="1508.2" y2="76.8"/>
																		<line class="st15" x1="1132.8" y1="658.3" x2="1535.7" y2="71.7"/>
																		<line class="st15" x1="1160.4" y1="653.2" x2="1563.3" y2="66.4"/>
																		<line class="st15" x1="1187.9" y1="647.9" x2="1590.8" y2="61.3"/>
																		<line class="st15" x1="1215.6" y1="642.7" x2="1618.3" y2="56.1"/>
																		<line class="st15" x1="1243.1" y1="637.6" x2="1645.8" y2="50.9"/>
																		<line class="st15" x1="1270.7" y1="632.4" x2="1673.4" y2="45.7"/>
																		<line class="st15" x1="1298.2" y1="627.2" x2="1700.9" y2="40.5"/>
																		<line class="st15" x1="1325.8" y1="622" x2="1728.6" y2="35.4"/>
																		<line class="st15" x1="1353.3" y1="616.9" x2="1756.1" y2="30.2"/>
																		<line class="st15" x1="1380.8" y1="611.7" x2="1783.7" y2="25"/>
																		<line class="st15" x1="1408.3" y1="606.4" x2="1811.2" y2="19.8"/>
																		<line class="st15" x1="1435.8" y1="601.2" x2="1838.8" y2="14.6"/>
																		<line class="st15" x1="1463.4" y1="596.2" x2="1866.3" y2="9.3"/>
																		<line class="st15" x1="1490.9" y1="591" x2="1893.8" y2="4.3"/>
																		<line class="st15" x1="1518.6" y1="585.7" x2="1921.3" y2="-0.9"/>
																		<line class="st15" x1="1546.1" y1="580.5" x2="1948.8" y2="-6.1"/>
																		<line class="st15" x1="1573.7" y1="575.3" x2="1976.4" y2="-11.4"/>
																		<line class="st15" x1="1601.2" y1="570.2" x2="2003.9" y2="-16.6"/>
																	</g>
																</g>
															</g>
															<g>
																<g>
																	<g>
																		<defs>
																			<rect id="SVGID_19_" x="7.3" y="-43" width="1080" height="397.8"/>
																		</defs>
																		<clipPath id="SVGID_20_">
																			<use xlink:href="#SVGID_19_"  style="overflow:visible;"/>
																		</clipPath>
																		<g class="st17">
																			<g>
																				<g>
																					<g>
																						<g>
																							<defs>
																								<ellipse id="SVGID_21_" cx="752.7" cy="348.1" rx="89.2" ry="88.5"/>
																							</defs>
																							<clipPath id="SVGID_22_">
																								<use xlink:href="#SVGID_21_"  style="overflow:visible;"/>
																							</clipPath>
																							<g class="st18">
																								<line class="st15" x1="462.3" y1="532.1" x2="666.3" y2="235.1"/>
																								<line class="st15" x1="489.1" y1="527.1" x2="693.2" y2="230"/>
																								<line class="st15" x1="516" y1="522.1" x2="720" y2="224.9"/>
																								<line class="st15" x1="543" y1="517" x2="747" y2="219.9"/>
																								<line class="st15" x1="570" y1="511.9" x2="773.8" y2="214.8"/>
																								<line class="st15" x1="596.8" y1="506.8" x2="800.8" y2="209.7"/>
																								<line class="st15" x1="623.8" y1="501.8" x2="827.8" y2="204.7"/>
																								<line class="st15" x1="650.7" y1="496.8" x2="854.7" y2="199.7"/>
																								<line class="st15" x1="677.5" y1="491.7" x2="881.5" y2="194.6"/>
																								<line class="st15" x1="704.5" y1="486.6" x2="908.5" y2="189.4"/>
																								<line class="st15" x1="731.3" y1="481.6" x2="935.3" y2="184.3"/>
																								<line class="st15" x1="758.3" y1="476.4" x2="962.3" y2="179.3"/>
																								<line class="st15" x1="785.2" y1="471.3" x2="989.2" y2="174.3"/>
																								<line class="st15" x1="812" y1="466.3" x2="1016" y2="169.2"/>
																								<line class="st15" x1="839" y1="461.3" x2="1042.9" y2="164.1"/>
																							</g>
																						</g>
																					</g>
																				</g>
																				<g>
																					<g id="圖層_1_1_">
																						<defs>
																							<rect id="SVGID_23_" x="7.3" y="-43" width="1080" height="397.8"/>
																						</defs>
																						<clipPath id="SVGID_24_">
																							<use xlink:href="#SVGID_23_"  style="overflow:visible;"/>
																						</clipPath>
																						<rect x="189.3" y="66" class="st19" width="716" height="211.4"/>
																					</g>
																				</g>
																			</g>
																		</g>
																	</g>
																</g>
															</g>
														</g>
													</g>
												</g>
											</g>
										</g>
									</g>
								</g>
							</g>
						</g>
					</g>
				</g>
			</g>
			<g class="st9">
				<g>
					<g>
						<g class="st10">
							<g>
								<defs>
									<circle id="SVGID_25_" cx="284" cy="-46.9" r="145.9"/>
								</defs>
								<clipPath id="SVGID_26_">
									<use xlink:href="#SVGID_25_"  style="overflow:visible;"/>
								</clipPath>
								<g class="st20">
									<line class="st12" x1="-190.5" y1="256.3" x2="142.9" y2="-233.2"/>
									<line class="st12" x1="-162.5" y1="251" x2="170.9" y2="-238.5"/>
									<line class="st12" x1="-134.6" y1="245.7" x2="198.9" y2="-243.8"/>
									<line class="st12" x1="-106.6" y1="240.4" x2="226.8" y2="-249.2"/>
									<line class="st12" x1="-78.6" y1="235.1" x2="254.8" y2="-254.5"/>
									<line class="st12" x1="-50.6" y1="229.8" x2="282.8" y2="-259.8"/>
									<line class="st12" x1="-22.6" y1="224.4" x2="310.8" y2="-265.1"/>
									<line class="st12" x1="5.4" y1="219.1" x2="338.8" y2="-270.4"/>
									<line class="st12" x1="33.3" y1="213.8" x2="366.7" y2="-275.7"/>
									<line class="st12" x1="61.3" y1="208.5" x2="394.7" y2="-281"/>
									<line class="st12" x1="89.3" y1="203.2" x2="422.7" y2="-286.3"/>
									<line class="st12" x1="117.3" y1="197.9" x2="450.7" y2="-291.6"/>
									<line class="st12" x1="145.3" y1="192.6" x2="478.7" y2="-296.9"/>
									<line class="st12" x1="173.2" y1="187.3" x2="506.7" y2="-302.2"/>
									<line class="st12" x1="201.2" y1="182" x2="534.6" y2="-307.6"/>
									<line class="st12" x1="229.2" y1="176.7" x2="562.6" y2="-312.9"/>
									<line class="st12" x1="257.2" y1="171.4" x2="590.6" y2="-318.2"/>
									<line class="st12" x1="285.2" y1="166" x2="618.6" y2="-323.5"/>
									<line class="st12" x1="313.2" y1="160.7" x2="646.6" y2="-328.8"/>
									<line class="st12" x1="341.1" y1="155.4" x2="674.5" y2="-334.1"/>
									<line class="st12" x1="369.1" y1="150.1" x2="702.5" y2="-339.4"/>
									<line class="st12" x1="397.1" y1="144.8" x2="730.5" y2="-344.7"/>
									<line class="st12" x1="425.1" y1="139.5" x2="758.5" y2="-350"/>
								</g>
							</g>
						</g>
						<g>
							<g>
								<g>
									<defs>
										<rect id="SVGID_27_" x="152.6" y="-501" width="1080" height="424"/>
									</defs>
									<clipPath id="SVGID_28_">
										<use xlink:href="#SVGID_27_"  style="overflow:visible;"/>
									</clipPath>
									<g class="st21">
										<g>
											<g>
												<g class="st10">
													<g>
														<defs>
															<ellipse id="SVGID_29_" cx="496.6" cy="-552.2" rx="176.2" ry="186.3"/>
														</defs>
														<clipPath id="SVGID_30_">
															<use xlink:href="#SVGID_29_"  style="overflow:visible;"/>
														</clipPath>
														<g class="st22">
															<line class="st15" x1="-76.7" y1="-164.9" x2="326.1" y2="-790.2"/>
															<line class="st15" x1="-49.1" y1="-170.4" x2="353.7" y2="-795.8"/>
															<line class="st15" x1="-21.6" y1="-176" x2="381.2" y2="-801.3"/>
															<line class="st15" x1="6" y1="-181.5" x2="408.8" y2="-806.8"/>
															<line class="st15" x1="33.5" y1="-187" x2="436.3" y2="-812.4"/>
															<line class="st15" x1="61.1" y1="-192.5" x2="463.9" y2="-817.9"/>
															<line class="st15" x1="88.6" y1="-198.1" x2="491.4" y2="-823.4"/>
															<line class="st15" x1="116.2" y1="-203.6" x2="519" y2="-828.9"/>
															<line class="st15" x1="143.7" y1="-209.1" x2="546.5" y2="-834.5"/>
															<line class="st15" x1="171.2" y1="-214.7" x2="574.1" y2="-840"/>
															<line class="st15" x1="198.8" y1="-220.2" x2="601.6" y2="-845.5"/>
															<line class="st15" x1="226.3" y1="-225.7" x2="629.1" y2="-851"/>
															<line class="st15" x1="253.9" y1="-231.2" x2="656.7" y2="-856.6"/>
															<line class="st15" x1="281.4" y1="-236.8" x2="684.2" y2="-862.1"/>
															<line class="st15" x1="309" y1="-242.3" x2="711.8" y2="-867.6"/>
															<line class="st15" x1="336.5" y1="-247.8" x2="739.3" y2="-873.1"/>
															<line class="st15" x1="364.1" y1="-253.3" x2="766.9" y2="-878.7"/>
															<line class="st15" x1="391.6" y1="-258.9" x2="794.4" y2="-884.2"/>
															<line class="st15" x1="419.2" y1="-264.4" x2="822" y2="-889.7"/>
															<line class="st15" x1="446.7" y1="-269.9" x2="849.5" y2="-895.2"/>
															<line class="st15" x1="474.3" y1="-275.4" x2="877.1" y2="-900.8"/>
															<line class="st15" x1="501.8" y1="-281" x2="904.6" y2="-906.3"/>
															<line class="st15" x1="529.3" y1="-286.5" x2="932.2" y2="-911.8"/>
															<line class="st15" x1="556.9" y1="-292" x2="959.7" y2="-917.3"/>
															<line class="st15" x1="584.4" y1="-297.5" x2="987.2" y2="-922.9"/>
															<line class="st15" x1="612" y1="-303.1" x2="1014.8" y2="-928.4"/>
															<line class="st15" x1="639.5" y1="-308.6" x2="1042.3" y2="-933.9"/>
															<line class="st15" x1="667.1" y1="-314.1" x2="1069.9" y2="-939.4"/>
														</g>
													</g>
												</g>
												<rect x="152.6" y="-501" class="st15" width="1080" height="424"/>
												<g>
													<g>
														<g>
															<g class="st10">
																<g>
																	<defs>
																		<ellipse id="SVGID_31_" cx="1576.1" cy="-111.2" rx="176.2" ry="174.8"/>
																	</defs>
																	<clipPath id="SVGID_32_">
																		<use xlink:href="#SVGID_31_"  style="overflow:visible;"/>
																	</clipPath>
																	<g class="st23">
																		<line class="st15" x1="1002.8" y1="252.2" x2="1405.6" y2="-334.6"/>
																		<line class="st15" x1="1030.3" y1="247" x2="1433.1" y2="-339.8"/>
																		<line class="st15" x1="1057.9" y1="241.8" x2="1460.7" y2="-344.8"/>
																		<line class="st15" x1="1085.4" y1="236.6" x2="1488.2" y2="-350.1"/>
																		<line class="st15" x1="1113" y1="231.3" x2="1515.8" y2="-355.3"/>
																		<line class="st15" x1="1140.5" y1="226.2" x2="1543.3" y2="-360.5"/>
																		<line class="st15" x1="1168" y1="221.1" x2="1570.9" y2="-365.6"/>
																		<line class="st15" x1="1195.6" y1="215.9" x2="1598.4" y2="-370.8"/>
																		<line class="st15" x1="1223.1" y1="210.6" x2="1626" y2="-376"/>
																		<line class="st15" x1="1250.7" y1="205.5" x2="1653.5" y2="-381.2"/>
																		<line class="st15" x1="1278.2" y1="200.3" x2="1681" y2="-386.3"/>
																		<line class="st15" x1="1305.8" y1="195.2" x2="1708.6" y2="-391.6"/>
																		<line class="st15" x1="1333.3" y1="189.9" x2="1736.1" y2="-396.7"/>
																		<line class="st15" x1="1360.9" y1="184.7" x2="1763.7" y2="-401.9"/>
																		<line class="st15" x1="1388.4" y1="179.6" x2="1791.2" y2="-407.1"/>
																		<line class="st15" x1="1416" y1="174.4" x2="1818.8" y2="-412.3"/>
																		<line class="st15" x1="1443.5" y1="169.2" x2="1846.3" y2="-417.5"/>
																		<line class="st15" x1="1471.1" y1="164" x2="1873.9" y2="-422.6"/>
																		<line class="st15" x1="1498.6" y1="158.9" x2="1901.4" y2="-427.8"/>
																		<line class="st15" x1="1526.2" y1="153.7" x2="1929" y2="-433"/>
																		<line class="st15" x1="1553.7" y1="148.4" x2="1956.5" y2="-438.2"/>
																		<line class="st15" x1="1581.2" y1="143.2" x2="1984.1" y2="-443.4"/>
																		<line class="st15" x1="1608.8" y1="138.2" x2="2011.6" y2="-448.7"/>
																		<line class="st15" x1="1636.3" y1="133" x2="2039.1" y2="-453.7"/>
																		<line class="st15" x1="1663.9" y1="127.7" x2="2066.7" y2="-458.9"/>
																		<line class="st15" x1="1691.4" y1="122.5" x2="2094.2" y2="-464.1"/>
																		<line class="st15" x1="1719" y1="117.3" x2="2121.8" y2="-469.4"/>
																		<line class="st15" x1="1746.5" y1="112.2" x2="2149.3" y2="-474.6"/>
																	</g>
																</g>
															</g>
															<g>
																<g>
																	<g>
																		<defs>
																			<rect id="SVGID_33_" x="152.6" y="-501" width="1080" height="397.8"/>
																		</defs>
																		<clipPath id="SVGID_34_">
																			<use xlink:href="#SVGID_33_"  style="overflow:visible;"/>
																		</clipPath>
																		<g class="st24">
																			<g>
																				<g>
																					<g>
																						<g>
																							<defs>
																								<ellipse id="SVGID_35_" cx="898" cy="-109.9" rx="89.2" ry="88.5"/>
																							</defs>
																							<clipPath id="SVGID_36_">
																								<use xlink:href="#SVGID_35_"  style="overflow:visible;"/>
																							</clipPath>
																							<g class="st25">
																								<line class="st15" x1="607.6" y1="74.1" x2="811.6" y2="-222.9"/>
																								<line class="st15" x1="634.5" y1="69.1" x2="838.5" y2="-228"/>
																								<line class="st15" x1="661.4" y1="64.1" x2="865.4" y2="-233.1"/>
																								<line class="st15" x1="688.4" y1="59" x2="892.3" y2="-238.1"/>
																								<line class="st15" x1="715.3" y1="53.9" x2="919.2" y2="-243.2"/>
																								<line class="st15" x1="742.2" y1="48.8" x2="946.1" y2="-248.3"/>
																								<line class="st15" x1="769.1" y1="43.8" x2="973.1" y2="-253.3"/>
																								<line class="st15" x1="796" y1="38.8" x2="1000" y2="-258.3"/>
																								<line class="st15" x1="822.9" y1="33.7" x2="1026.9" y2="-263.4"/>
																								<line class="st15" x1="849.8" y1="28.6" x2="1053.8" y2="-268.6"/>
																								<line class="st15" x1="876.7" y1="23.6" x2="1080.7" y2="-273.7"/>
																								<line class="st15" x1="903.6" y1="18.4" x2="1107.6" y2="-278.7"/>
																								<line class="st15" x1="930.5" y1="13.3" x2="1134.5" y2="-283.7"/>
																								<line class="st15" x1="957.4" y1="8.3" x2="1161.4" y2="-288.8"/>
																								<line class="st15" x1="984.3" y1="3.3" x2="1188.3" y2="-293.9"/>
																							</g>
																						</g>
																					</g>
																				</g>
																				<g>
																					<g id="圖層_1_2_">
																						<defs>
																							<rect id="SVGID_37_" x="152.6" y="-501" width="1080" height="397.8"/>
																						</defs>
																						<clipPath id="SVGID_38_">
																							<use xlink:href="#SVGID_37_"  style="overflow:visible;"/>
																						</clipPath>
																						<rect x="334.6" y="-392" class="st26" width="716" height="211.4"/>
																					</g>
																				</g>
																			</g>
																		</g>
																	</g>
																</g>
															</g>
														</g>
													</g>
												</g>
											</g>
										</g>
									</g>
								</g>
							</g>
						</g>
					</g>
				</g>
			</g>
		</g>
	</g>
</g>
</svg>
