<svg id="Capa_1" enable-background="new 0 0 512 512" height="512" viewBox="0 0 512 512" width="512" xmlns="http://www.w3.org/2000/svg"><g><g><path d="m309.042 354.334h-164.302c-11.046 0-20-8.954-20-20v-228.522c0-11.046 8.954-20 20-20h164.302c11.046 0 20 8.954 20 20v228.522c0 11.046-8.955 20-20 20z" fill="#ddeafb"/></g><g><path d="m308.996 85.812h-28.932c11.071 0 20.046 8.975 20.046 20.046v228.43c0 11.071-8.975 20.046-20.046 20.046h28.932c11.071 0 20.046-8.975 20.046-20.046v-228.43c0-11.071-8.975-20.046-20.046-20.046z" fill="#cbe2ff"/></g><g><g><g><path d="m229.304 163.122 3.004 12.271c4.869 19.891 18.692 33.912 37.419 42.197 1.773 1.182 1.773 3.787 0 4.969-18.727 8.285-32.55 22.306-37.419 42.197l-3.004 12.271c-.618 2.525-4.208 2.525-4.826 0l-3.004-12.271c-4.869-19.891-18.692-33.912-37.419-42.197-1.773-1.182-1.773-3.787 0-4.969 18.727-8.285 32.55-22.306 37.419-42.197l3.004-12.271c.618-2.525 4.208-2.525 4.826 0z" fill="#d82e3d"/></g></g></g><g><g><path d="m316.268 398.76-116.178-116.178c-7.81-7.81-7.81-20.474 0-28.284l161.589-161.59c7.81-7.81 20.474-7.81 28.284 0l116.179 116.179c7.81 7.81 7.81 20.474 0 28.284l-161.589 161.589c-7.811 7.811-20.474 7.811-28.285 0z" fill="#ecf4ff"/></g><g><path d="m506.11 208.854-16.738-16.738c4.414 7.663 3.367 17.611-3.185 24.162l-162.933 162.933c-6.084 6.084-15.097 7.417-22.49 4.045l15.472 15.472c7.828 7.828 20.521 7.828 28.349 0l161.525-161.525c7.828-7.828 7.828-20.52 0-28.349z" fill="#ddeafb"/></g><g><path d="m403.315 233.591c-7.351-8.22-18.213-11.15-28.069-8.795-.716.171-1.362-.475-1.191-1.191 2.355-9.857-.575-20.719-8.796-28.07-10.628-9.504-26.962-9.655-37.749-.333-9.021 7.796-11.916 19.74-8.686 30.199 2.454 7.946 3.991 16.146 4.491 24.446l.117 1.937c.432 7.175.109 14.375-.963 21.483l-.351 2.328c-.101.667.473 1.241 1.141 1.141l2.328-.351c7.107-1.072 14.308-1.395 21.482-.963l1.937.117c8.3.5 16.5 2.036 24.445 4.49 10.459 3.23 22.403.335 30.2-8.687 9.32-10.789 9.168-27.123-.336-37.751z" fill="#dd636e"/></g></g><g><g><path d="m295.971 249.88h-206.86c-48.721 0-88.942 39.121-89.11 87.842-.169 48.829 39.363 88.466 88.153 88.466 30.274 0 56.98-15.264 72.851-38.512 2.174-3.184 5.759-5.111 9.614-5.111h42.88c3.879 0 7.467 1.961 9.656 5.164 15.873 23.215 42.554 38.454 72.798 38.46 47.62.009 86.337-37.2 88.109-84.787 1.87-50.222-38.287-91.522-88.091-91.522z" fill="#5e54ac"/></g><g><g><path d="m331.49 257.328c16.734 16.69 26.796 40.068 25.838 65.783-1.772 47.587-40.489 84.796-88.109 84.787-12.628-.003-24.631-2.669-35.489-7.455 15.941 15.9 37.929 25.74 62.223 25.744 47.62.009 86.337-37.2 88.109-84.787 1.395-37.477-20.614-69.987-52.572-84.072z" fill="#524798"/></g></g><g><g><circle cx="296.695" cy="301.261" fill="#ecf4ff" r="14.355"/></g><g><circle cx="296.695" cy="373.806" fill="#ecf4ff" r="14.355"/></g><g><circle cx="332.967" cy="337.533" fill="#ecf4ff" r="14.355"/></g><g><circle cx="260.422" cy="337.533" fill="#ecf4ff" r="14.355"/></g></g><g><path d="m119.731 321.63h-15.05c-1.71 0-3.097-1.386-3.097-3.097v-15.049c0-7.976-6.202-14.768-14.172-15.052-8.368-.298-15.246 6.398-15.246 14.699v15.402c0 1.71-1.386 3.097-3.097 3.097h-15.048c-7.976 0-14.769 6.202-15.052 14.173-.297 8.368 6.398 15.245 14.699 15.245h15.402c1.71 0 3.097 1.386 3.097 3.097v15.049c0 7.976 6.202 14.768 14.172 15.052 8.368.298 15.246-6.398 15.246-14.699v-15.402c0-1.71 1.386-3.097 3.097-3.097h15.402c8.301 0 14.997-6.877 14.699-15.245-.283-7.97-7.076-14.173-15.052-14.173z" fill="#ecf4ff"/></g><g><g><path d="m125.04 322.596c.478 1.345.763 2.781.816 4.28.297 8.368-6.398 15.245-14.699 15.245h-15.403c-1.71 0-3.097 1.386-3.097 3.097v15.402c0 8.302-6.878 14.997-15.246 14.699-1.499-.053-2.935-.337-4.279-.816 2.032 5.473 7.093 9.525 13.206 9.743 8.368.298 15.246-6.398 15.246-14.699v-15.402c0-1.71 1.386-3.097 3.097-3.097h15.402c8.301 0 14.997-6.877 14.699-15.245-.216-6.113-4.269-11.174-9.742-13.207z" fill="#ddeafb"/></g></g></g></g></svg>