<?xml version="1.0" encoding="utf-8"?>
<!-- Generator: Adobe Illustrator 22.1.0, SVG Export Plug-In . SVG Version: 6.00 Build 0)  -->
<svg version="1.1" id="圖層_1" xmlns="http://www.w3.org/2000/svg" xmlns:xlink="http://www.w3.org/1999/xlink" x="0px" y="0px"
	 viewBox="0 0 184.1 209.8" style="enable-background:new 0 0 184.1 209.8;" xml:space="preserve">
<style type="text/css">
	.st0{fill:#CCD4CF;}
	.st1{fill:#999999;}
	.st2{fill:#EEEEEE;}
	.st3{fill:#FF9648;}
	.st4{fill:#4EC659;}
	.st5{fill:#2C2E32;}
	.st6{fill:#E3E5E4;}
	.st7{fill:#012670;}
	.st8{fill:#606266;}
</style>
<g>
	<polygon class="st0" points="162.7,8.2 21.3,8.2 7.2,24.8 176.8,24.8 	"/>
	<polygon class="st0" points="155.7,162.1 30.5,162.1 50.1,112.8 135.8,112.8 	"/>
	<polygon class="st1" points="159.3,172.5 135.8,112.8 135.8,46.9 158,46.9 	"/>
	<polygon class="st1" points="30.8,38.6 30.8,162.2 51,112.8 51,38.6 	"/>
	<g>
		<path class="st2" d="M9.1,23.9c-1,0-1.8,0.8-1.8,1.8v168c0,1,0.8,1.8,1.8,1.8h4.4c1,0,1.8,0.8,1.8,1.8v2.4c0,1,0.8,1.8,1.8,1.8
			h32.7c1,0,1.8-0.8,1.8-1.8v-2.4c0-1,0.8-1.8,1.8-1.8h79.1c1,0,1.8,0.8,1.8,1.8v2.4c0,1,0.8,1.8,1.8,1.8h32.7c1,0,1.8-0.8,1.8-1.8
			v-2.4c0-1,0.8-1.8,1.8-1.8h2.4c1,0,1.8-0.8,1.8-1.8v-168c0-1-0.8-1.8-1.8-1.8H9.1z M156.6,155.4c0,1-0.3,2.6-0.8,3.5l-1.6,1.6
			c-0.9,0.4-2.5,0.8-3.5,0.8h-24.6c-1,0-1.8-0.8-1.8-1.8v-10.4c0-1-0.8-1.8-1.8-1.8H65.6c-1,0-1.8,0.8-1.8,1.8v10.4
			c0,1-0.8,1.8-1.8,1.8H37.3c-1,0-2.6-0.3-3.5-0.8l-1.6-1.6c-0.4-0.9-0.8-2.5-0.8-3.5V58.1c0-1,0.3-2.6,0.8-3.5l1.6-1.6
			c0.9-0.4,2.5-0.8,3.5-0.8h113.4c1,0,2.6,0.3,3.5,0.8l1.6,1.6c0.4,0.9,0.8,2.5,0.8,3.5V155.4z"/>
	</g>
	<rect x="69.5" y="153.8" class="st0" width="47.9" height="30.4"/>
	<rect x="77.8" y="162.1" class="st1" width="15.7" height="12"/>
	<rect x="103.6" y="162.1" class="st3" width="6.5" height="3.7"/>
	<rect x="103.6" y="169.5" class="st4" width="6.5" height="4.6"/>
	<polygon class="st5" points="107.3,65.4 102.6,65.4 102.6,52.5 84.2,52.5 84.2,65.4 78.7,65.4 78.7,71.8 86.2,71.8 84.5,77.5 
		88.2,80.6 88.5,84 94,93.3 99.3,84 99.5,80.7 103.2,77.5 101.5,71.8 107.3,71.8 	"/>
	<polygon class="st6" points="80.4,102.7 92.5,122 92.5,142.3 71.3,131.9 71.3,113.1 	"/>
	<polygon class="st1" points="92.5,142.3 115.6,131.9 115.6,112.4 92.5,122 	"/>
	<polygon class="st7" points="80.4,102.7 109.1,102.2 115.6,112.4 92.5,122 	"/>
	<polygon class="st8" points="84.2,52.5 84.2,65.4 78.7,65.4 78.7,71.8 86.2,71.8 84.5,77.5 88.2,80.6 88.5,84 94,93.3 94.1,52.5 	
		"/>
</g>
</svg>
