<?xml version="1.0" encoding="utf-8"?>
<!-- Generator: Adobe Illustrator 22.1.0, SVG Export Plug-In . SVG Version: 6.00 Build 0)  -->
<svg version="1.1" id="圖層_1" xmlns="http://www.w3.org/2000/svg" xmlns:xlink="http://www.w3.org/1999/xlink" x="0px" y="0px"
	 viewBox="0 0 1920 700" style="enable-background:new 0 0 1920 700;" xml:space="preserve">
<style type="text/css">
	.st0{opacity:0.2;}
	.st1{fill:#FFFFFF;}
	.st2{fill:url(#SVGID_1_);}
	.st3{fill:url(#SVGID_2_);}
	.st4{fill:url(#SVGID_3_);}
	.st5{display:none;}
	.st6{display:inline;fill:#06D1FF;}
	.st7{display:inline;}
	.st8{fill:#0042B5;}
	.st9{opacity:0.63;clip-path:url(#SVGID_5_);fill:#E1E1E1;enable-background:new    ;}
	.st10{opacity:0.63;clip-path:url(#SVGID_7_);fill:#E1E1E1;enable-background:new    ;}
	.st11{fill:#06D1FF;}
	.st12{clip-path:url(#SVGID_9_);fill:#00BCE5;}
	.st13{clip-path:url(#SVGID_11_);}
	.st14{clip-path:url(#SVGID_13_);fill:#00378B;}
	.st15{opacity:0.46;fill:url(#SVGID_14_);enable-background:new    ;}
	.st16{clip-path:url(#SVGID_16_);fill:#00378B;}
	.st17{fill:#FFD843;}
	.st18{fill:#FFDF82;}
	.st19{fill:#FF9500;}
</style>
<g id="圖層_1_1_">
	<g>
		<g class="st0">
			<circle class="st1" cx="935.6" cy="412.1" r="99.6"/>
		</g>
		<g>
			
				<linearGradient id="SVGID_1_" gradientUnits="userSpaceOnUse" x1="897.7012" y1="5.1403" x2="1031.9283" y2="5.1403" gradientTransform="matrix(0.9149 0.4038 0.4038 -0.9149 50.8153 27.2107)">
				<stop  offset="0" style="stop-color:#55C2FD"/>
				<stop  offset="1.329917e-02" style="stop-color:#60C6FD"/>
				<stop  offset="6.471151e-02" style="stop-color:#84D2FE"/>
				<stop  offset="0.1226" style="stop-color:#A4DEFE"/>
				<stop  offset="0.1866" style="stop-color:#C0E7FE"/>
				<stop  offset="0.2588" style="stop-color:#D6EFFF"/>
				<stop  offset="0.3432" style="stop-color:#E7F5FF"/>
				<stop  offset="0.4475" style="stop-color:#F2F9FF"/>
				<stop  offset="0.5938" style="stop-color:#F9FBFF"/>
				<stop  offset="1" style="stop-color:#FBFCFF"/>
			</linearGradient>
			<circle class="st2" cx="935.6" cy="412.1" r="67.1"/>
		</g>
	</g>
	
		<linearGradient id="SVGID_2_" gradientUnits="userSpaceOnUse" x1="960.5" y1="-62.6351" x2="960.5" y2="467.9228" gradientTransform="matrix(1 0 0 -1 0 700)">
		<stop  offset="0" style="stop-color:#55C2FD"/>
		<stop  offset="1" style="stop-color:#FBFCFF"/>
	</linearGradient>
	<path class="st3" d="M-4,356.1c0,0,91.4,74.8,204.9,57.4c132.9-20.4,250.7,9.6,374.7,43.3c112.6,30.6,264-12.7,426.4-86.7
		s409.7,15.1,542.7,35.7c60.5,9.4,157.9,5.8,222.7-40.1C1818.9,329.4,1925,323,1925,323v390H-4V356.1z"/>
	
		<linearGradient id="SVGID_3_" gradientUnits="userSpaceOnUse" x1="959.55" y1="221.8912" x2="959.55" y2="78.4014" gradientTransform="matrix(1 0 0 -1 0 700)">
		<stop  offset="0" style="stop-color:#55C2FD"/>
		<stop  offset="1.336116e-02" style="stop-color:#59C3FD"/>
		<stop  offset="0.191" style="stop-color:#8AD5FE"/>
		<stop  offset="0.3671" style="stop-color:#B3E3FE"/>
		<stop  offset="0.5386" style="stop-color:#D2EEFF"/>
		<stop  offset="0.704" style="stop-color:#E9F6FF"/>
		<stop  offset="0.8609" style="stop-color:#F6FAFF"/>
		<stop  offset="1" style="stop-color:#FBFCFF"/>
	</linearGradient>
	<path class="st4" d="M3,519.3c0,0,69.8,26.4,327.1-20.4s269.6,92.7,396.8,84.1s162.3-80.4,355.3-17.8
		c177,57.4,215.8,24.8,275.6-3.2c69.3-32.5,97.8-31.1,243.5,11.5c65.7,19.2,114,15.6,213.5-62.2c0,0,28.7-20.8,101.3-18.5V713H3
		V519.3z"/>
</g>
<g>
	<g>
		<g id="圖層_2_1_" class="st5">
			<polygon class="st6" points="1310.6,447.3 1311.7,461.7 1352.2,461.7 1354.4,447.8 			"/>
			<g class="st7">
				<g>
					<path id="XMLID_11_" class="st8" d="M1290.6,321.4l-19.3,28.4c-6.9,10.2-10.7,22.3-10.7,34.6l-0.2,46.8l40.8-43.2L1290.6,321.4
						z"/>
				</g>
				<g>
					<defs>
						<path id="SVGID_4_" d="M1290.6,321.4l-19.3,28.4c-6.9,10.2-10.7,22.3-10.7,34.6l-0.2,46.8l40.8-43.2L1290.6,321.4z"/>
					</defs>
					<clipPath id="SVGID_5_">
						<use xlink:href="#SVGID_4_"  style="overflow:visible;"/>
					</clipPath>
					<path class="st9" d="M1290.3,311.7c0,0-19.9,63.1-9.5,108.9l21.2-25.4l-6.1-78.3L1290.3,311.7z"/>
				</g>
			</g>
			<g class="st7">
				<g>
					<path id="XMLID_10_" class="st8" d="M1374,321.6l19.1,28.5c6.9,10.3,10.5,22.3,10.5,34.7l-0.2,46.8l-40.5-43.5L1374,321.6z"/>
				</g>
				<g>
					<defs>
						<path id="SVGID_6_" d="M1374,321.6l19.1,28.5c6.9,10.3,10.5,22.3,10.5,34.7l-0.2,46.8l-40.5-43.5L1374,321.6z"/>
					</defs>
					<clipPath id="SVGID_7_">
						<use xlink:href="#SVGID_6_"  style="overflow:visible;"/>
					</clipPath>
					<path class="st10" d="M1369.8,300.1c0,0,22.4,70,14.8,121.1l-27.5-36.1l11.7-67.3L1369.8,300.1z"/>
				</g>
			</g>
			<g class="st7">
				<g>
					<path id="XMLID_8_" class="st11" d="M1330.3,182.1c0,0-24,43.1-37,121.1c-13,77.9-1.6,123.2-1.6,123.2h82
						C1373.7,426.3,1393.9,286.8,1330.3,182.1z"/>
				</g>
				<g>
					<defs>
						<path id="SVGID_8_" d="M1330.3,182.1c0,0-24,43.1-37,121.1c-13,77.9-1.6,123.2-1.6,123.2h82
							C1373.7,426.3,1393.9,286.8,1330.3,182.1z"/>
					</defs>
					<clipPath id="SVGID_9_">
						<use xlink:href="#SVGID_8_"  style="overflow:visible;"/>
					</clipPath>
					<polygon class="st12" points="1330,174.3 1329.2,437.1 1412.1,439.3 1381.9,183.6 					"/>
				</g>
				<g>
					<defs>
						<path id="SVGID_10_" d="M1330.3,182.1c0,0-24,43.1-37,121.1c-13,77.9-1.6,123.2-1.6,123.2h82
							C1373.7,426.3,1393.9,286.8,1330.3,182.1z"/>
					</defs>
					<clipPath id="SVGID_11_">
						<use xlink:href="#SVGID_10_"  style="overflow:visible;"/>
					</clipPath>
					<g class="st13">
						<g>
							<polygon id="XMLID_12_" class="st8" points="1364.7,214.5 1302.6,213.2 1329.1,175.2 							"/>
						</g>
						<g>
							<defs>
								<polygon id="SVGID_12_" points="1364.7,214.5 1302.6,213.2 1329.1,175.2 								"/>
							</defs>
							<clipPath id="SVGID_13_">
								<use xlink:href="#SVGID_12_"  style="overflow:visible;"/>
							</clipPath>
							<polygon class="st14" points="1330.8,165.6 1329.8,223.1 1357.6,217.5 							"/>
						</g>
					</g>
					<g class="st13">
						<path class="st1" d="M1357.9,305.1c0,14.5-11.8,26.1-26.3,26.1s-26.1-11.8-26.1-26.3s11.8-26.1,26.3-26.1
							C1346.3,278.9,1358,290.6,1357.9,305.1z"/>
						<path class="st8" d="M1348.4,305.1c0,9.4-7.7,17.1-17.1,17c-9.4,0-17.1-7.7-17-17.1c0-9.4,7.7-17.1,17.1-17
							C1340.8,288,1348.4,295.6,1348.4,305.1z"/>
						
							<linearGradient id="SVGID_14_" gradientUnits="userSpaceOnUse" x1="2107.5422" y1="756.7683" x2="2141.687" y2="756.7683" gradientTransform="matrix(-0.6123 -0.7906 -0.7906 0.6123 3230.4658 1521.3909)">
							<stop  offset="0.142" style="stop-color:#001274"/>
							<stop  offset="0.3221" style="stop-color:#001777;stop-opacity:0.6855"/>
							<stop  offset="0.5457" style="stop-color:#002781;stop-opacity:0.295"/>
							<stop  offset="0.7146" style="stop-color:#00378B;stop-opacity:0"/>
						</linearGradient>
						<path class="st15" d="M1314.2,305c0-9.4,7.7-17.1,17.1-17c9.4,0,17.1,7.7,17,17.1c0,9.4-7.7,17.1-17.1,17
							C1321.8,322.1,1314.2,314.4,1314.2,305z"/>
					</g>
					<g class="st13">
						<g>
							<polygon id="XMLID_9_" class="st8" points="1308.2,426.2 1357.1,426.2 1360.9,451.1 1304.5,451 							"/>
						</g>
						<g>
							<defs>
								<polygon id="SVGID_15_" points="1308.2,426.2 1357.1,426.2 1360.9,451.1 1304.5,451 								"/>
							</defs>
							<clipPath id="SVGID_16_">
								<use xlink:href="#SVGID_15_"  style="overflow:visible;"/>
							</clipPath>
							<polygon class="st16" points="1329.2,423.9 1330.2,457.9 1372.2,455 1365.8,426.5 							"/>
						</g>
					</g>
				</g>
				<g>
					<g>
						<g>
							<g>
								<polygon class="st17" points="1311.7,461.7 1278.3,598.7 1385.7,598.6 1352.1,461.7 								"/>
								<polygon class="st18" points="1320.5,461.7 1304.4,598.8 1359.7,598.6 1342.9,461.7 								"/>
							</g>
							<g>
								<path class="st19" d="M1321,461.7c0,0-19.6,37.2,11.1,68.6c0,0,28.9-22.5,11.1-68.6L1321,461.7L1321,461.7z"/>
								<path class="st17" d="M1324.2,461.7c0,0-12.5,27.1,8.4,45.8c0,0,18.1-14.5,7.5-45.8H1324.2z"/>
								<path class="st19" d="M1326.9,461.7c0,0-7.7,16.6,5.1,28c0,0,11.1-8.9,4.6-28H1326.9z"/>
							</g>
						</g>
					</g>
					<g>
						<path class="st17" d="M1264,566.1c0,5-4,9-9,9s-9-4-9-9s4-9,9-9C1259.9,557.1,1264,561.1,1264,566.1z"/>
						<path class="st17" d="M1405.4,555.3c0,3.6-2.9,6.5-6.5,6.5s-6.5-2.9-6.5-6.5s2.9-6.5,6.5-6.5S1405.4,551.7,1405.4,555.3z"/>
						<path class="st17" d="M1270.8,580.7c0,1.9-1.6,3.5-3.5,3.5s-3.5-1.6-3.5-3.5s1.6-3.5,3.5-3.5
							C1269.2,577.2,1270.8,578.8,1270.8,580.7z"/>
						<path class="st17" d="M1398.9,578.9c0,1.9-1.6,3.5-3.5,3.5s-3.5-1.6-3.5-3.5s1.6-3.5,3.5-3.5S1398.9,576.9,1398.9,578.9z"/>
						<path class="st17" d="M1425.9,577.4c0,1.9-1.6,3.5-3.5,3.5s-3.5-1.6-3.5-3.5s1.6-3.5,3.5-3.5S1425.9,575.4,1425.9,577.4z"/>
						<path class="st17" d="M1242.8,587.2c0,1.9-1.6,3.5-3.5,3.5s-3.5-1.6-3.5-3.5s1.6-3.5,3.5-3.5
							C1241.3,583.7,1242.8,585.3,1242.8,587.2z"/>
					</g>
				</g>
			</g>
		</g>
		<g id="圖層_3">
		</g>
	</g>
</g>
</svg>
