<?xml version="1.0" encoding="utf-8"?>
<!-- Generator: Adobe Illustrator 22.1.0, SVG Export Plug-In . SVG Version: 6.00 Build 0)  -->
<svg version="1.1" id="圖層_1" xmlns="http://www.w3.org/2000/svg" xmlns:xlink="http://www.w3.org/1999/xlink" x="0px" y="0px"
	 viewBox="0 0 535.3 262.7" style="enable-background:new 0 0 535.3 262.7;" xml:space="preserve">
<style type="text/css">
	.st0{fill:#D8A2A2;}
	.st1{fill:#587BC8;}
	.st2{fill:#3B455A;}
	.st3{fill:#7DB4DA;}
	.st4{fill:#305398;}
	.st5{fill:none;stroke:#1C7DB1;stroke-width:1.1081;stroke-miterlimit:10;}
	.st6{fill:#1C7DB1;}
</style>
<g id="Object_2_">
	<g>
		<g>
			<g>
				<g>
					<g>
						<path class="st0" d="M252.7,155.5v15c0.1-0.3,0.1-0.6,0.1-1v-23.8h-0.1V155.5z"/>
						<path class="st0" d="M252.7,135.4v-14.7c-0.1,0.3-0.1,0.7-0.1,1v23.5h0.1V135.4L252.7,135.4z"/>
						<path class="st0" d="M248.3,188.5c-0.6,0.1-1.1,0.2-1.7,0.6c-1.7,0.9-3.2,1.8-4.9,2.3c1.7-0.6,3.2-1.3,4.9-2.3
							C247.2,188.8,247.8,188.6,248.3,188.5z"/>
						<path class="st0" d="M263.5,120.5c-1.7-0.6-3.2-1.4-4.9-2.3c-0.6-0.3-1.1-0.4-1.7-0.6c0.6,0.1,1.1,0.3,1.6,0.6
							C260.3,119.1,261.9,119.9,263.5,120.5z"/>
						<path class="st0" d="M252.7,191.6v31h0.1v-30.1C252.8,192.2,252.8,191.9,252.7,191.6z"/>
						<path class="st0" d="M209.1,139.6c0.4,0.7,0.7,1.6,0.6,2.2c0.1-0.9-0.1-1.8-0.6-2.6c-1.7-2.7-2.7-5.6-2.7-8.4
							C206.3,133.7,207.3,136.8,209.1,139.6z"/>
						<path class="st0" d="M228,131.6c-0.1,2.7-1.4,5.2-2.9,7.8c-0.3,0.7-0.6,1.3-0.6,2c0.1-0.6,0.2-1.1,0.6-1.7
							C226.6,137.1,228,134.4,228,131.6z"/>
						<path class="st0" d="M252.7,99.6v-15V67.8h-0.1v31C252.5,99,252.7,99.3,252.7,99.6z"/>
						<path class="st1" d="M248.3,188.5c-0.6,0.1-1.1,0.3-1.6,0.6c-1.7,0.9-3.2,1.8-4.9,2.3c-2.4,0.8-4.9,1-7.6-0.4
							c-5.4-2.9-7.4-10.2-4.3-15.5c3.9-6.6,10.9-5.8,16.5-2.2c2.4,1.6,5.6,0.1,6.1-2.6v-15V146l0,0v-0.7h-0.1v0.6h-25
							c-1.9-0.6-3.2-2.3-3-4.2c0-0.7,0.2-1.3,0.6-2c1.4-2.6,2.8-5.1,2.9-7.8c0-1.3-0.3-2.8-1.1-4.2c-2.9-5.4-10.2-7.4-15.5-4.3
							c-3.3,2-4.8,4.8-4.9,7.9c0,2.8,1,5.8,2.7,8.4c0.6,0.9,0.7,1.8,0.6,2.6c0,1.8-1.2,3.4-3.1,3.9h-15.1h-6.7
							c-0.1,0.1-0.1,0.2-0.2,0.3c-1.9,3.1-1.6,5.3,1.3,7.3c1.8,1.2,3.7,2.3,5.2,3.9c2.4,2.4,2.6,3.9,0.7,6.9c-2.1,3.4-2,3.6,1.1,6
							c0.9,0.7,1.8,1.1,0.6,2.3c-1.8,1.8-1.1,3.6,0.3,4.9c2.1,1.9,2.4,4.2,2,6.9c-0.3,2.3-0.9,4.7-1.3,6.9
							c-1.2,6.2,0.4,9.1,6.1,10.8c5.9,1.7,11.7,0.2,17.5-0.3c3.9-0.3,7.8-1.8,11.8-0.8c2.6,0.7,4,2.2,4.3,5.1
							c0.4,4.2,1.8,8.3,2.4,12.4c0.6,3.4,2.1,4.4,5.1,4.3c2.6-0.1,6.2-0.2,10.5-0.2v-31C252.2,189.6,250.3,188.2,248.3,188.5z"/>
						<path class="st2" d="M273.9,87.3c1.2,2.4,4.6,3.1,6.6,1c4.7-4.8,11.3-7.2,16.7-1.7c4.2,4.4,4,12-0.6,16.1
							c-2.2,2-4.7,2.4-7.2,2.2c-1.7-0.1-3.4-0.6-5.2-1.1c-0.6-0.1-1.1-0.2-1.7-0.2c-2,0.2-3.6,2-3.6,4.1l3.4,14.3l0,0l2.3,9.6l0,0
							l0.1,0.3l0.1,0.3h0.1l24.7-5.9c2.4,0.2,4.2,2.7,3.4,5.2c-1.3,4.4-2.3,8.7,1.1,12.4c4.1,4.6,11.7,4.9,16.1,0.6
							c5.4-5.3,3.1-11.9-1.7-16.7c-1.9-1.9-1.4-5,0.7-6.3l15.1-3.6c0.8-5.6,0.7-11-0.2-16.1c-2.6-13.2-7.8-23.4-15.8-30.8
							c-16.5-15.2-35.8-19.3-56-16.1c-1.9,0.3-3.8,0.7-5.7,1.2l3.9,16.4L273.9,87.3z"/>
						<polygon class="st3" points="252.7,145.2 252.7,145.2 252.7,145.8 252.7,145.8 252.7,145.5 						"/>
						<path class="st4" d="M299.1,222.8c3.7-0.2,1.9-2.4,0.2-6c-13.8-28.9,2.7-52.1,5.3-55.3c4-4.9,7.1-10.2,9.2-15.7h-15.5
							c-2.3,0.9-3.6,3.7-2.1,6c3.6,5.7,4.3,12.7-2.2,16.5c-5.3,3.1-12.7,1.1-15.5-4.3c-2.4-4.4-0.4-8.4,1.9-12.3
							c1.3-2.3,0.1-5-2.1-5.9H253v23.8c0,0.3-0.1,0.7-0.1,1v0.1c-0.7,2.6-3.7,4-6.1,2.4c-5.7-3.6-12.7-4.3-16.5,2.2
							c-3.1,5.3-0.8,12.4,4.7,15.4c2.7,1.4,4.9,1.3,7.2,0.6c1.7-0.6,3.2-1.4,4.9-2.3c0.6-0.3,1.1-0.4,1.7-0.6
							c2.1-0.3,3.9,0.8,4.4,3.1v0.1c0.1,0.3,0.1,0.7,0.1,1v30.1C269.3,222.6,294.6,223.1,299.1,222.8z"/>
						<path class="st4" d="M252.7,191.6L252.7,191.6c-0.4-2.3-2.3-3.4-4.4-3.1C250.3,188.2,252.2,189.6,252.7,191.6z"/>
						<path class="st4" d="M246.5,173c-5.7-3.6-12.7-4.3-16.5,2.2c-3.1,5.3-1.1,12.7,4.3,15.5c2.7,1.4,5.1,1.3,7.6,0.4
							c-2.3,0.8-4.7,0.9-7.2-0.6c-5.4-2.9-7.8-10.1-4.7-15.4C233.9,168.7,240.9,169.6,246.5,173c2.4,1.6,5.6,0.1,6.1-2.4v-0.1
							C252.1,173.1,249,174.6,246.5,173z"/>
						<path class="st3" d="M275.4,104.4c-3.9-6.6-10.9-5.8-16.5-2.2c-2.4,1.6-5.6,0.1-6.1-2.6c-0.1-0.3-0.1-0.6-0.1-1V67.8
							c-8.4,0.3-16.7,2.9-24.5,6.8c-2.1,1-4.2,2.2-6.3,3.3c-14.5,8.2-22.7,20.9-21.9,39.3c0.3,10.3-4.2,17.9-11.1,24.3
							c-1.2,1.1-2.4,2.3-3.4,3.7c-0.1,0.2-0.2,0.3-0.3,0.6h6.7H207c1.8-0.4,3.1-2.1,3.1-3.9c0-0.8-0.2-1.6-0.6-2.2
							c-1.8-2.8-2.8-5.8-2.7-8.7c0.1-3,1.6-5.9,4.9-7.9c5.3-3.1,12.7-1.1,15.5,4.3c0.8,1.4,1.1,2.9,1.1,4.2c0,2.8-1.4,5.4-2.9,8.1
							c-0.3,0.6-0.4,1.1-0.6,1.7c-0.1,1.9,1.1,3.8,3,4.2h25V145v-23.5c0-0.3,0.1-0.7,0.1-1c0.4-2,2.4-3.3,4.4-3.1
							c0.6,0.1,1.1,0.2,1.7,0.6c1.7,0.9,3.2,1.8,4.9,2.3c2.4,0.8,4.9,1,7.6-0.4C276.5,117,278.5,109.7,275.4,104.4z"/>
					</g>
				</g>
			</g>
		</g>
	</g>
</g>
<g>
	<line class="st5" x1="231.6" y1="97.2" x2="231.6" y2="40"/>
	<line class="st5" x1="126.5" y1="40.6" x2="232" y2="40.6"/>
	<circle class="st6" cx="122.9" cy="40.8" r="3.6"/>
</g>
<g>
	<line class="st5" x1="307.5" y1="85.7" x2="307.5" y2="28.5"/>
	<line class="st5" x1="412.5" y1="29" x2="307.1" y2="29"/>
	<circle class="st6" cx="416.1" cy="29.3" r="3.6"/>
</g>
<g>
	<line class="st5" x1="216.1" y1="180.6" x2="216.1" y2="237.8"/>
	<line class="st5" x1="111.1" y1="237.2" x2="216.5" y2="237.2"/>
	<circle class="st6" cx="107.5" cy="236.9" r="3.6"/>
</g>
<g>
	<line class="st5" x1="280.6" y1="202" x2="280.6" y2="237.8"/>
	<line class="st5" x1="442" y1="237.2" x2="280.3" y2="237.2"/>
	<circle class="st6" cx="443.3" cy="236.9" r="3.6"/>
</g>
<g>
	<path d="M39.4,35.2c-0.8,2.5-2.3,4.4-4.4,6l-0.6-0.6c2-1.3,3.4-3.2,4.2-5.7L39.4,35.2z M45.7,46.6L45,46.9
		c-0.3-0.7-0.6-1.2-0.9-1.7c-2.6,0.7-5.1,1.1-7.7,1.3l-0.2-0.7c1.4-1.6,2.7-4,4-7l0.7,0.3c-1.1,2.7-2.4,4.9-3.6,6.5
		c1.8-0.1,3.9-0.5,6.4-1.1c-0.4-0.8-0.9-1.5-1.7-2.6l0.7-0.4C44.1,43.4,45,45.1,45.7,46.6z M46.6,40.5l-0.5,0.6
		c-1.6-1-2.9-2.8-3.9-5.2h-0.9v-0.8h1.5C43.7,37.6,44.9,39.4,46.6,40.5z"/>
	<path d="M53.2,39.8c-1.8,1.1-3.2,1.9-4.4,2.3l-0.5-0.6c1.2-0.4,2.7-1.1,4.4-2.2L53.2,39.8z M60.2,46.7H48.3v-0.8h1.8v-3.8h8.3v3.8
		h1.8L60.2,46.7L60.2,46.7z M60,38.6H48.5V38H60V38.6z M52.9,37l-0.5,0.5c-0.7-0.9-1.3-1.5-2.1-2.1l0.5-0.5
		C51.5,35.5,52.2,36.3,52.9,37z M52.7,45.9v-3.1h-1.9v3.1H52.7z M55.1,45.9v-3.1h-1.8v3.1H55.1z M60.2,41.6l-0.5,0.6
		c-1.1-0.9-2.6-1.6-4.4-2.4l0.5-0.6C57.6,40,59,40.9,60.2,41.6z M58.4,35.5c-0.8,0.9-1.5,1.5-2.3,2.1l-0.5-0.5
		c0.8-0.6,1.5-1.2,2.3-2.1L58.4,35.5z M57.7,45.9v-3.1h-1.8v3.1H57.7z"/>
	<path d="M63.3,38c-0.2,1.3-0.4,2.4-0.7,3.3L62,41.1c0.3-0.9,0.6-2.1,0.7-3.2L63.3,38z M66.2,39.2l-0.5,0.6
		c-0.4-0.5-0.8-0.9-1.1-1.1v8.2h-0.8v-12h0.8v2.7C65.2,38.1,65.6,38.6,66.2,39.2z M73.7,46.6h-7.8v-0.8h3.8v-3.6h-3.1v-0.7h3.1v-3
		h-2c-0.4,0.9-0.8,1.7-1.1,2.4L66,40.5c0.9-1.5,1.5-3.1,1.8-4.7l0.7,0.2c-0.1,0.8-0.3,1.3-0.5,1.9h1.7V35h0.8v2.8h3v0.8h-3v3h2.6
		v0.7h-2.6v3.5h3.2V46.6z"/>
	<path d="M81.3,37.8h-1.5v1.3H79v-1.3h-1.8c-0.2,0.9-0.6,1.6-1.1,2l-0.5-0.5c0.8-0.6,1-1.5,1-2.9c0-0.2,0-0.5,0-0.8
		c1.6-0.1,2.9-0.3,4-0.6l0.4,0.6c-1,0.3-2.3,0.5-3.6,0.6c0,0.1,0,0.4,0,0.9h4L81.3,37.8L81.3,37.8z M85.7,44.8h-5.8l0.4,0.5
		c-1.2,0.8-2.6,1.2-4.4,1.6l-0.4-0.6c1.8-0.4,3.1-0.9,4.2-1.5h-2.4v-5.2h8.4L85.7,44.8L85.7,44.8z M84.9,41v-0.9h-7V41H84.9z
		 M84.9,42.5v-0.9h-7v0.9H84.9z M84.9,44.1v-0.9h-7v0.9H84.9z M87.2,37.8h-2.1v1.3h-0.7v-1.3h-2.1c-0.2,0.7-0.5,1.1-0.9,1.5
		l-0.5-0.5c0.6-0.5,0.9-1.4,0.9-2.6c0-0.2,0-0.4,0-0.6c1.4,0,2.8-0.3,4.4-0.6l0.4,0.6c-1.5,0.3-2.8,0.6-4.1,0.6c0,0.4,0,0.7,0,0.9
		h4.6L87.2,37.8L87.2,37.8z M87.3,46.3L87,46.8c-1.2-0.5-2.6-0.9-4.2-1.1l0.4-0.7C84.9,45.4,86.4,45.9,87.3,46.3z"/>
	<path d="M93.6,45.9c0,0.3-0.1,0.5-0.2,0.7c-0.2,0.2-0.5,0.3-1,0.3c-0.3,0-0.6,0-0.9-0.1l-0.2-0.7c0.4,0,0.8,0.1,1,0.1
		s0.5,0,0.6-0.1s0.1-0.2,0.1-0.4v-3.5h-2.4c-0.2,2-0.5,3.5-1,4.6L89,46.4c0.7-1.5,1-3.6,1-6.1v-5h3.6V45.9z M93,41.5V39h-2.2v2.5H93
		z M93,38.3V36h-2.2v2.4H93V38.3z M101,46.3l-0.4,0.6c-0.9-0.6-1.7-1-2.4-1.7c-0.5,0.5-1.1,1-2,1.6l-0.6-0.5c0.9-0.6,1.6-1,2.1-1.6
		c-0.9-1-1.5-2.5-1.9-4.3h-0.4v6.3h-0.7V35.3h5.9c-0.1,1.4-0.2,2.4-0.4,2.7c-0.1,0.4-0.4,0.7-0.8,0.9C99,39,98.5,39.1,97.5,39
		l-0.3-0.8c0.3,0,0.5,0,0.8,0c0.6,0,0.9,0,1.1-0.1s0.3-0.2,0.4-0.5s0.1-0.9,0.2-1.8h-4.4v3.9h4.9c-0.2,2.1-0.8,3.7-1.7,4.9
		C99.3,45.3,100.1,45.8,101,46.3z M99.7,40.5h-3c0.4,1.6,0.9,2.8,1.7,3.7C99,43.3,99.5,42,99.7,40.5z"/>
	<path d="M107.8,39.4c-0.1,1.1-0.4,2.2-1,3.1l-0.5-0.5c0.4-0.6,0.7-1.2,0.9-2H106v6c0,0.2-0.1,0.4-0.2,0.6c-0.2,0.2-0.5,0.3-1.1,0.3
		c-0.2,0-0.5,0-0.7,0l-0.4-0.8c0.6,0,1,0.1,1.3,0.1c0.1,0,0.1,0,0.2-0.1s0.1-0.1,0.1-0.2V41c-0.7,1.7-1.3,2.9-2.1,3.9l-0.5-0.6
		c0.8-1,1.5-2.5,2.2-4.3h-2.1v-0.7h3c-0.6-0.7-1.2-1.2-2.1-1.8l0.5-0.5c0.3,0.2,0.8,0.6,1.2,0.9c0.7-0.8,1.1-1.4,1.5-2.1h-3.7v-0.7
		h4.4V36c-0.5,0.9-1,1.7-1.7,2.5l0.5,0.5l-0.4,0.4H107.8L107.8,39.4z M113.7,42.5c0,0.9-0.1,1.8-0.2,2.5c-0.1,0.8-0.3,1.2-0.4,1.3
		c-0.1,0.2-0.3,0.3-0.5,0.4c-0.2,0.1-0.8,0.2-1.7,0.1l-0.3-0.8c0.3,0,0.6,0,0.9,0c0.5,0,0.8,0,0.9-0.1s0.2-0.1,0.2-0.2
		c0.1-0.1,0.1-0.4,0.2-0.9s0.1-1.1,0.2-1.8h-2.3c-0.4,1.7-1.5,3-3.4,3.8l-0.5-0.6c0.8-0.2,1.4-0.7,2-1.2c0.6-0.6,0.9-1.2,1.1-2h-2.2
		v-0.7h2.4c0.1-0.4,0.1-0.9,0.1-1.3h0.7c0,0.4,0,0.8-0.1,1.3h2.8v0.2H113.7z M114.6,40.8l-0.4,0.6c-1-0.3-2-0.8-2.9-1.4
		c-0.9,0.7-1.7,1.1-2.6,1.4l-0.5-0.6c0.9-0.3,1.7-0.7,2.6-1.3c-0.6-0.6-0.9-1-1.2-1.5l0.6-0.4c0.3,0.6,0.7,1,1.1,1.4
		c0.7-0.6,1.1-1.2,1.4-2.2h-2.8c-0.6,0.8-1.1,1.3-1.6,1.7l-0.6-0.5c1-0.8,1.9-1.9,2.6-3.2l0.7,0.3c-0.2,0.4-0.4,0.7-0.7,1h4.2v0.7
		h-0.9c-0.4,1-0.9,1.9-1.6,2.6C112.6,40.1,113.5,40.5,114.6,40.8z"/>
</g>
<g>
	<path d="M436.8,33h-5.6v1.3c0,0.3-0.1,0.5-0.3,0.6c-0.2,0.1-0.4,0.2-0.6,0.2h-1.6l-0.2-0.7c0.3,0,0.6,0,0.8,0c0.6,0,0.9,0,1-0.1
		s0.2-0.2,0.2-0.3v-1h-5.6v-0.7h5.6v-0.6c0.9-0.3,1.6-0.6,2.2-0.9h-5.5v-0.7h6.9V31c-0.9,0.5-1.9,0.9-2.9,1.3v0.1h5.6V33L436.8,33z
		 M436.5,31.2h-0.8v-1.7h-9.8v1.7h-0.7v-2.4h0.8l-0.1-4.9c0.9-0.1,1.7-0.3,2.6-0.7l0.3,0.6c-0.7,0.3-1.3,0.5-2.2,0.7v0.9h2.2v0.7
		h-2.2v1h2.2v0.7h-2.1V29h8.3v-1.1h-2.2v-0.7h2.2v-1h-2.2v-0.7h2.2v-0.9h-2.2v-0.7h3l-0.1,5h0.9L436.5,31.2L436.5,31.2z M432.7,28.1
		l-0.5,0.5c-0.1-0.1-0.6-0.5-1.2-1c-0.7,0.5-1.2,0.8-1.6,0.9l-0.4-0.6c0.3-0.1,0.8-0.4,1.5-0.9c-0.2-0.1-0.4-0.3-0.6-0.5
		s-0.4-0.3-0.5-0.4l0.4-0.4c0.7,0.5,1,0.8,1.1,0.9c0.5-0.4,0.8-0.7,0.9-0.8l0.5,0.4c-0.1,0.1-0.4,0.4-0.9,0.9
		C431.8,27.4,432.1,27.6,432.7,28.1z M432.6,25.6l-0.5,0.4c-0.4-0.3-0.8-0.7-1.1-0.9c-0.5,0.3-0.9,0.6-1.5,0.9l-0.3-0.6
		c0.4-0.2,0.9-0.4,1.3-0.8c-0.3-0.3-0.7-0.6-0.9-0.8l0.5-0.4c0.6,0.4,0.9,0.7,1,0.8c0.4-0.3,0.8-0.7,0.9-0.9l0.5,0.3
		c-0.2,0.3-0.5,0.6-0.9,1C431.7,24.7,432,25,432.6,25.6z"/>
	<path d="M442.9,29.6l-0.6,0.5c-0.3-0.7-0.7-1.1-0.9-1.6v6.8h-0.7v-6.7c-0.6,1.2-1.1,2.3-1.8,3l-0.5-0.6c0.8-0.9,1.5-2.3,2.2-4.2
		h-1.8v-0.7h1.9v-2.8h0.7v2.8h1.5v0.7h-1.5v0.4C442,28.1,442.5,28.9,442.9,29.6z M450.5,34.8l-0.4,0.6c-1.5-0.8-2.6-1.5-3.4-2.4
		c-0.9,0.9-2.3,1.7-3.7,2.4l-0.4-0.6c1.6-0.7,2.8-1.4,3.7-2.3c-0.7-0.9-1.2-2-1.7-3.3l0.7-0.3c0.6,1.4,1,2.5,1.5,3
		c0.7-0.9,1.1-2,1.5-3.1l0.7,0.4c-0.5,1.2-1,2.4-1.7,3.3C447.8,33.2,449,34,450.5,34.8z M450.2,25.7h-7.1V25h3.2
		c-0.1-0.5-0.3-0.9-0.6-1.3l0.7-0.3c0.2,0.3,0.4,0.9,0.7,1.5h3L450.2,25.7L450.2,25.7z M446,26.5c-0.8,1.1-1.5,2.2-2.4,2.9l-0.6-0.5
		c0.8-0.7,1.5-1.6,2.3-2.8L446,26.5z M450.4,29l-0.6,0.5c-0.6-0.9-1.3-1.8-2.4-2.7l0.6-0.5C449,27.1,449.7,27.9,450.4,29z"/>
	<path d="M456.4,25.5h-4.2v-0.7h1.8c-0.1-0.4-0.4-0.8-0.7-1.2l0.7-0.3c0.3,0.5,0.6,0.9,0.8,1.5h1.6L456.4,25.5L456.4,25.5z
		 M456.1,27.4h-3.6v-0.7h3.6V27.4z M456.1,29.4h-3.6v-0.8h3.6V29.4z M456,35h-0.7v-0.7h-1.9v1h-0.8V31h3.3v4H456z M455.3,33.6v-2.1
		h-1.9v2.1H455.3z M464.1,34.2l-0.4,0.6c-1.5-1.1-2.5-2.4-3-3.6v4.2H460v-4.2c-0.7,1.3-1.7,2.6-3.1,3.6l-0.5-0.5
		c1.5-1.2,2.6-2.5,3.1-3.7h-2.8v-0.7h3.2v-1.1h-2.7v-4.9h6.2v4.9h-2.7v1.1h3.3v0.7h-2.8C461.6,31.7,462.6,32.9,464.1,34.2z
		 M459.9,25.8v-1.4h-2.1v1.4H459.9z M459.9,27.9v-1.5h-2.1v1.5H459.9z M462.7,25.8v-1.4h-2.1v1.4H462.7z M462.7,27.9v-1.5h-2.1v1.5
		H462.7z"/>
	<path d="M470.5,30.2l-0.5,0.6c-0.3-0.6-0.8-1.1-1.1-1.7v6.3h-0.8v-6.3c-0.7,1.4-1.2,2.6-1.8,3.3l-0.5-0.6c0.9-1.2,1.6-2.6,2.3-4.4
		h-2.2v-0.7h2.3v-2l-1.7,0.3l-0.4-0.7c1.6-0.2,2.9-0.5,4-0.9l0.4,0.7c-0.7,0.2-1.2,0.4-1.6,0.5v2.2h1.6v0.7h-1.7V28
		C469.6,29,470.2,29.6,470.5,30.2z M477.6,35H470v-0.7h3.5v-2.1h-3v-0.7h3v-2c-1.4,0.1-2.4,0.2-2.6,0.2l-0.3-0.7
		c2.5,0,4.6-0.3,6.4-0.8l0.5,0.6c-0.9,0.2-2,0.4-3.2,0.6v2.1h2.9v0.7h-2.9v2.1h3.4L477.6,35L477.6,35z M476.7,27.5h-5.9v-3.7h5.9
		V27.5z M476,26.9v-2.4h-4.4v2.4H476z"/>
</g>
<g>
	<path d="M64.8,230.9c-0.6,0.3-1.3,0.5-2.1,0.7v2.2h2v0.7h-2v0.7c0.9,0.9,1.5,1.6,2,2.4l-0.5,0.6c-0.4-0.7-0.9-1.3-1.5-1.9v6.1H62
		v-6.3c-0.6,1.1-1.3,2.3-2.2,3.4l-0.5-0.6c1.2-1.4,2.1-2.8,2.6-4.3h-2.6v-0.7h2.6v-2c-0.4,0.1-1,0.2-2,0.4l-0.4-0.7
		c1.8-0.2,3.3-0.6,4.7-1.1L64.8,230.9z M71.3,238.6l-1.4,0.2v3.4h-0.8v-3.3l-4.4,0.7l-0.1-0.7l4.5-0.7v-7.9h0.8v7.8l1.3-0.2
		L71.3,238.6z M68,236.9l-0.5,0.6c-0.6-0.8-1.4-1.6-2.5-2.4l0.5-0.7C66.6,235.2,67.4,236.1,68,236.9z M68.4,233.2l-0.5,0.6
		c-0.8-0.9-1.6-1.5-2.5-2.1l0.4-0.6C66.8,231.7,67.5,232.4,68.4,233.2z"/>
	<path d="M84.8,240.1h-5.6v1.3c0,0.3-0.1,0.5-0.3,0.6c-0.2,0.1-0.4,0.2-0.6,0.2h-1.6l-0.2-0.7c0.3,0,0.6,0,0.8,0c0.6,0,0.9,0,1-0.1
		s0.2-0.2,0.2-0.3V240h-5.6v-0.7h5.6v-0.6c0.9-0.3,1.6-0.6,2.2-0.9h-5.5v-0.6h6.9v0.7c-0.9,0.5-1.9,0.9-2.9,1.3v0.1h5.6
		C84.8,239.4,84.8,240.1,84.8,240.1z M84.5,238.3h-0.8v-1.7H74v1.7h-0.7v-2.4h0.8L74,231c0.9-0.1,1.7-0.3,2.6-0.7l0.3,0.6
		c-0.7,0.3-1.3,0.5-2.2,0.7v0.9h2.2v0.7h-2.2v1h2.2v0.7h-2.1v1.1h8.3v-1.1h-2.2v-0.7h2.2v-1h-2.2v-0.7h2.2v-0.9h-2.4v-0.7h3l-0.1,5
		h0.9C84.5,235.9,84.5,238.3,84.5,238.3z M80.6,235.1l-0.5,0.5c-0.1-0.1-0.6-0.5-1.2-1c-0.7,0.5-1.2,0.8-1.6,0.9l-0.4-0.6
		c0.3-0.1,0.8-0.4,1.5-0.9c-0.2-0.1-0.4-0.3-0.6-0.5s-0.4-0.3-0.5-0.4l0.4-0.4c0.7,0.5,1,0.8,1.1,0.9c0.5-0.4,0.8-0.7,0.9-0.8
		l0.5,0.4c-0.1,0.1-0.4,0.4-0.9,0.9C79.6,234.3,80,234.7,80.6,235.1z M80.6,232.5l-0.5,0.4c-0.4-0.3-0.8-0.7-1.1-0.9
		c-0.5,0.3-0.9,0.6-1.5,0.9l-0.3-0.6c0.4-0.2,0.9-0.4,1.3-0.8c-0.3-0.3-0.7-0.6-0.9-0.8l0.5-0.4c0.6,0.4,0.9,0.7,1,0.8
		c0.4-0.3,0.8-0.7,0.9-0.9l0.5,0.3c-0.2,0.3-0.5,0.6-0.9,1C79.6,231.6,80,232,80.6,232.5z"/>
	<path d="M98,236.6h-0.8v-1.2h-9.6v1.2H87v-1.9h11V236.6z M88.7,232.5l-0.6,0.3c-0.4-0.6-0.7-1.1-1-1.5l0.6-0.4
		C88.2,231.5,88.4,232,88.7,232.5z M92.2,231.3c-0.6,0.4-1.3,0.8-2.3,1.1l-0.1,0.3c0.9,0.5,1.7,0.9,2.2,1.1l-0.4,0.6
		c-0.4-0.3-1.1-0.7-2.1-1.1c-0.6,0.7-1.2,1-2.1,1.2l-0.4-0.6c0.7-0.2,1.1-0.4,1.5-0.7s0.7-0.7,0.8-1.1c0.1-0.5,0.1-1,0.1-1.7h0.7
		c0,0.6,0,0.9-0.1,1.2c0.5-0.2,1-0.5,1.7-0.9L92.2,231.3z M97.4,242.3h-0.8v-0.5h-8.5v0.5h-0.7v-3h4.1c0.2-0.4,0.3-0.7,0.4-0.9h-3.3
		v-2.2h7.7v2.2h-3.5c-0.2,0.4-0.3,0.7-0.4,0.9h5C97.4,239.3,97.4,242.3,97.4,242.3z M96.7,241.2V240h-8.5v1.2H96.7z M95.6,237.8
		v-0.9h-6.2v0.9H95.6z M98,233.9l-0.4,0.6c-0.9-0.6-1.7-0.9-2.5-1.2c-0.6,0.5-1.3,0.9-2.4,1.1l-0.4-0.6c1.1-0.3,1.8-0.6,2.2-1
		c0.4-0.5,0.6-1.2,0.6-2.5h0.7c0,0.3,0,0.8-0.1,1.3c0.7-0.3,1.2-0.7,1.8-0.9l0.4,0.5c-0.6,0.4-1.3,0.9-2.3,1.2
		c0,0.1-0.1,0.3-0.1,0.4C96.2,233,97.1,233.4,98,233.9z M94.3,232.4l-0.7,0.3c-0.2-0.4-0.5-0.9-0.9-1.5l0.6-0.4
		C93.6,231.3,94,231.8,94.3,232.4z"/>
</g>
<g>
	<path d="M457.2,240.1c-1.4,1-2.8,1.8-4.1,2.2l-0.4-0.7c1.2-0.4,2.6-1,3.9-2L457.2,240.1z M464.6,239.1H459v3.6h-0.7v-3.6h-5.6v-0.7
		h5.6v-1h-4.1v-4.1h3.7v-2.6h0.7v0.9h4.8v0.7h-4.8v1h4.4v4.1h-4v1h5.7v0.7L464.6,239.1L464.6,239.1z M462.3,234.9v-1h-7.4v1H462.3z
		 M462.3,236.7v-1.1h-7.4v1.1H462.3z M464.6,241.8l-0.5,0.6c-1.2-0.8-2.6-1.5-4.1-2.1l0.5-0.6C462,240.3,463.4,241,464.6,241.8z"/>
	<path d="M478.3,241.7l-0.3,0.8c-0.9,0-1.7,0-2.6,0c-1.6,0-2.7,0-3.4,0s-1.3-0.2-2.1-0.4c-0.7-0.2-1.3-0.6-1.8-1.1
		c-0.4,0.7-0.9,1.2-1.4,1.8l-0.6-0.4c1.2-1.2,2-2.6,2.2-4.4h-2v-0.7c0.6-0.8,1.2-1.7,1.8-2.8h-2v-0.7h2.8v0.7
		c-0.7,1.1-1.3,2.1-1.8,2.8h1.9v0.7c-0.1,0.9-0.4,1.8-0.7,2.5c0.5,0.5,1,0.9,1.7,1.1s1.6,0.4,2.7,0.4
		C475.1,241.8,476.9,241.8,478.3,241.7z M468.9,232.8l-0.6,0.5c-0.5-0.8-1-1.4-1.6-2.1l0.5-0.4C467.8,231.3,468.4,231.9,468.9,232.8
		z M473.5,233.1h-2.3c0,0.4,0,0.9,0,1.5h2c0,1.2-0.1,2.5-0.2,3.6s-0.2,1.8-0.3,1.9c-0.1,0.2-0.3,0.3-0.5,0.5s-0.7,0.2-1.2,0.1
		l-0.2-0.8c0.2,0,0.4,0,0.6,0c0.3,0,0.5,0,0.6-0.1s0.2-0.1,0.2-0.3s0.1-0.8,0.2-1.8c0.1-1.1,0.1-2,0.1-2.6h-1.3
		c-0.1,2.4-0.6,4.1-1.4,5.3l-0.6-0.4c1-1.4,1.5-3.8,1.4-7.1h-1v-0.7h1.6c-0.1-0.5-0.3-0.9-0.7-1.5l0.7-0.2c0.4,0.7,0.6,1.2,0.7,1.8
		h1.6L473.5,233.1L473.5,233.1z M478.1,233h-3.3c-0.4,0.6-0.8,1-1.1,1.3l-0.5-0.5c0.9-0.9,1.6-2,2.1-3.3l0.6,0.3
		c-0.2,0.6-0.4,1-0.7,1.4h2.9V233z M478.1,237.8h-1.9v2.1c0,0.3-0.1,0.6-0.3,0.7s-0.6,0.2-1,0.2c-0.2,0-0.4,0-0.7,0l-0.2-0.7h1.2
		c0.1,0,0.1,0,0.2-0.1s0.1-0.1,0.1-0.2v-2h-1.9v-0.7h1.9v-0.8c0.4-0.4,0.9-0.9,1.2-1.2h-2.6v-0.7h3.5v0.7c-0.6,0.7-1,1.1-1.4,1.4
		v0.6h1.9L478.1,237.8L478.1,237.8z"/>
	<path d="M484.7,232.9h-4.8v-0.8h2.1c-0.1-0.4-0.3-0.8-0.6-1.2l0.7-0.3c0.3,0.5,0.5,0.9,0.7,1.5h2L484.7,232.9L484.7,232.9z
		 M484.3,236.8h-4.2v-0.7h4.2V236.8z M484.3,234.8h-4.2v-0.7h4.2V234.8z M484.1,242.3h-0.7v-0.8H481v1h-0.7V238h3.9L484.1,242.3
		L484.1,242.3z M483.5,240.9v-2.1H481v2.1H483.5z M491.7,242.1l-0.4,0.6c-1.4-0.5-2.5-0.9-3.2-1.6c-0.9,0.7-2,1.1-3.2,1.5l-0.4-0.6
		c1.3-0.4,2.4-0.9,3.1-1.4c-0.9-0.9-1.6-2-2.1-3.5H485v-0.7h5.7v0.7c-0.6,1.6-1.2,2.7-2.1,3.5C489.4,241.2,490.5,241.7,491.7,242.1z
		 M491.7,235.7h-1.3c-0.7,0-0.9-0.3-0.9-0.9v-2.9h-2.4c0,1.2-0.2,2.2-0.5,2.7c-0.3,0.6-0.8,1-1.3,1.4l-0.6-0.5
		c0.6-0.4,0.9-0.9,1.2-1.4c0.3-0.6,0.4-1.6,0.4-3h3.8v3.4c0,0.3,0.2,0.5,0.5,0.5h1.1L491.7,235.7L491.7,235.7z M489.9,237.2h-3.7
		c0.5,1.3,1.1,2.4,1.9,3C488.9,239.5,489.5,238.4,489.9,237.2z"/>
	<path d="M499.2,233.1h-5.6v-0.8h2.6c-0.2-0.5-0.5-0.9-0.9-1.4l0.7-0.3c0.3,0.4,0.6,0.9,0.9,1.7h2.3V233.1L499.2,233.1z M498.4,235
		H494v-0.7h4.4V235z M498.4,236.9H494v-0.7h4.4V236.9z M498.4,242.5h-0.7v-0.7h-2.9v0.8h-0.7v-4.4h4.4L498.4,242.5L498.4,242.5z
		 M497.7,241.2V239h-2.9v2.2H497.7z M505.3,235.4h-2.7v7.3h-0.8v-7.3h-2.7v-0.8h2.7v-3.9h0.8v3.9h2.7V235.4z"/>
</g>
</svg>
