<?xml version="1.0" encoding="utf-8"?>
<!-- Generator: Adobe Illustrator 22.1.0, SVG Export Plug-In . SVG Version: 6.00 Build 0)  -->
<svg version="1.1" id="圖層_1" xmlns="http://www.w3.org/2000/svg" xmlns:xlink="http://www.w3.org/1999/xlink" x="0px" y="0px"
	 viewBox="0 0 220 500" style="enable-background:new 0 0 220 500;" xml:space="preserve">
<style type="text/css">
	.st0{fill:#06D1FF;}
	.st1{opacity:0.63;clip-path:url(#XMLID_2_);fill:#E1E1E1;}
	.st2{opacity:0.63;clip-path:url(#XMLID_3_);fill:#E1E1E1;}
	.st3{clip-path:url(#XMLID_4_);fill:#00BCE5;}
	.st4{clip-path:url(#XMLID_4_);}
	.st5{clip-path:url(#XMLID_5_);fill:#00378B;}
	.st6{fill:#FFFFFF;}
	.st7{fill:#0042B5;}
	.st8{opacity:0.46;fill:url(#SVGID_1_);}
	.st9{clip-path:url(#XMLID_6_);fill:#00378B;}
	.st10{fill:#FFD843;}
	.st11{fill:#FFDF82;}
	.st12{fill:#FF9500;}
</style>
<g>
	<g>
		<polygon class="st0" points="86.6,323.2 87.9,339.9 134.7,339.9 137.3,323.9 		"/>
		<g>
			<defs>
				<path id="XMLID_11_" d="M63.5,177.5l-22.3,32.8c-8,11.8-12.3,25.8-12.4,40l-0.2,54.1l47.2-50L63.5,177.5z"/>
			</defs>
			<use xlink:href="#XMLID_11_"  style="overflow:visible;fill:#0042B5;"/>
			<clipPath id="XMLID_2_">
				<use xlink:href="#XMLID_11_"  style="overflow:visible;"/>
			</clipPath>
			<path class="st1" d="M63.1,166.3c0,0-23,73-11,126L76.7,263l-7.1-90.6L63.1,166.3z"/>
		</g>
		<g>
			<defs>
				<path id="XMLID_10_" d="M160,177.8l22.1,33c7.9,11.9,12.2,25.8,12.1,40.1L194,305l-46.9-50.4L160,177.8z"/>
			</defs>
			<use xlink:href="#XMLID_10_"  style="overflow:visible;fill:#0042B5;"/>
			<clipPath id="XMLID_3_">
				<use xlink:href="#XMLID_10_"  style="overflow:visible;"/>
			</clipPath>
			<path class="st2" d="M155.1,152.9c0,0,25.9,81.1,17.1,140.1l-31.8-41.8l13.5-77.9L155.1,152.9z"/>
		</g>
		<g>
			<defs>
				<path id="XMLID_8_" d="M109.4,16.3c0,0-27.8,49.9-42.8,140.1S64.8,299,64.8,299h94.9C159.7,299,183,137.5,109.4,16.3z"/>
			</defs>
			<use xlink:href="#XMLID_8_"  style="overflow:visible;fill:#06D1FF;"/>
			<clipPath id="XMLID_4_">
				<use xlink:href="#XMLID_8_"  style="overflow:visible;"/>
			</clipPath>
			<polygon class="st3" points="109,7.3 108.1,311.4 204.1,314 169.1,18.1 			"/>
			<g class="st4">
				<defs>
					<polygon id="XMLID_12_" points="149.2,53.8 77.3,52.3 108,8.3 					"/>
				</defs>
				<use xlink:href="#XMLID_12_"  style="overflow:visible;fill:#0042B5;"/>
				<clipPath id="XMLID_5_">
					<use xlink:href="#XMLID_12_"  style="overflow:visible;"/>
				</clipPath>
				<polygon class="st5" points="110,-2.8 108.8,63.8 141,57.3 				"/>
			</g>
		</g>
		<g>
			<path class="st6" d="M141.3,158.7c-0.1,16.7-13.7,30.3-30.4,30.2c-16.7-0.1-30.3-13.7-30.2-30.4c0.1-16.7,13.7-30.3,30.4-30.2
				C127.9,128.3,141.4,142,141.3,158.7z"/>
			<path class="st7" d="M130.3,158.7c0,10.9-8.9,19.7-19.8,19.7c-10.9,0-19.7-8.9-19.7-19.8s8.9-19.7,19.8-19.7
				C121.5,138.9,130.3,147.7,130.3,158.7z"/>
			
				<linearGradient id="SVGID_1_" gradientUnits="userSpaceOnUse" x1="253.9815" y1="98.7066" x2="293.5179" y2="98.7066" gradientTransform="matrix(-0.6123 -0.7906 0.7906 -0.6123 200.0922 435.4519)">
				<stop  offset="0.142" style="stop-color:#001274"/>
				<stop  offset="0.3221" style="stop-color:#001777;stop-opacity:0.6855"/>
				<stop  offset="0.5457" style="stop-color:#002781;stop-opacity:0.295"/>
				<stop  offset="0.7146" style="stop-color:#00378B;stop-opacity:0"/>
			</linearGradient>
			<path class="st8" d="M90.7,158.5c0-10.9,8.9-19.7,19.8-19.7c10.9,0,19.7,8.9,19.7,19.8c0,10.9-8.9,19.7-19.8,19.7
				C99.5,178.3,90.7,169.4,90.7,158.5z"/>
		</g>
		<g>
			<defs>
				<polygon id="XMLID_9_" points="83.8,298.9 140.4,298.9 144.7,327.7 79.5,327.5 				"/>
			</defs>
			<use xlink:href="#XMLID_9_"  style="overflow:visible;fill:#0042B5;"/>
			<clipPath id="XMLID_6_">
				<use xlink:href="#XMLID_9_"  style="overflow:visible;"/>
			</clipPath>
			<polygon class="st9" points="108.1,296.2 109.3,335.5 157.9,332.2 150.4,299.2 			"/>
		</g>
	</g>
	<g>
		<g>
			<g>
				<g>
					<polygon class="st10" points="87.8,339.9 49.1,498.5 173.5,498.4 134.6,339.9 					"/>
					<polygon class="st11" points="98.1,339.9 79.4,498.6 143.5,498.4 124,339.9 					"/>
				</g>
				<g>
					<path class="st12" d="M98.7,339.9c0,0-22.7,43.1,12.9,79.3c0,0,33.4-26,12.8-79.3H98.7z"/>
					<path class="st10" d="M102.3,339.9c0,0-14.5,31.4,9.7,53c0,0,21-16.8,8.7-53H102.3z"/>
					<path class="st12" d="M105.4,339.9c0,0-8.9,19.2,6,32.4c0,0,12.8-10.3,5.3-32.4H105.4z"/>
				</g>
			</g>
		</g>
		<g>
			<path class="st10" d="M32.6,460.8c0,5.8-4.7,10.5-10.5,10.5c-5.8,0-10.5-4.7-10.5-10.5c0-5.8,4.7-10.5,10.5-10.5
				C27.9,450.3,32.6,455,32.6,460.8z"/>
			<path class="st10" d="M196.3,448.3c0,4.2-3.4,7.5-7.5,7.5c-4.2,0-7.5-3.4-7.5-7.5c0-4.2,3.4-7.5,7.5-7.5
				C192.9,440.8,196.3,444.2,196.3,448.3z"/>
			<path class="st10" d="M40.5,477.7c0,2.3-1.8,4.1-4.1,4.1c-2.3,0-4.1-1.8-4.1-4.1c0-2.3,1.8-4.1,4.1-4.1
				C38.7,473.6,40.5,475.5,40.5,477.7z"/>
			<path class="st10" d="M188.7,475.6c0,2.3-1.8,4.1-4.1,4.1s-4.1-1.8-4.1-4.1c0-2.3,1.8-4.1,4.1-4.1S188.7,473.3,188.7,475.6z"/>
			<path class="st10" d="M220,473.8c0,2.2-1.8,4.1-4.1,4.1c-2.2,0-4.1-1.8-4.1-4.1c0-2.2,1.8-4.1,4.1-4.1
				C218.2,469.8,220,471.6,220,473.8z"/>
			<path class="st10" d="M8.2,485.3c0,2.3-1.8,4.1-4.1,4.1S0,487.5,0,485.3c0-2.3,1.8-4.1,4.1-4.1S8.2,483,8.2,485.3z"/>
		</g>
	</g>
</g>
</svg>
